<?xml version="1.0" encoding="UTF-8" standalone="no"?>
<!DOCTYPE svg PUBLIC "-//W3C//DTD SVG 1.0//EN" "http://www.w3.org/TR/2001/REC-SVG-20010904/DTD/svg10.dtd">
<!-- Generated by Microsoft Visio 11.0, SVG Export, v1.0 A64.sli_operation_shift_by_3.svg Page-1 -->
<svg xmlns="http://www.w3.org/2000/svg" xmlns:v="http://schemas.microsoft.com/visio/2003/SVGExtensions/" width="4.73159in"
xmlns:xlink="http://www.w3.org/1999/xlink" 
		height="1.80176in" viewBox="0 0 340.674 129.726" xml:space="preserve" color-interpolation-filters="sRGB" class="st9">
	<v:documentProperties v:langID="1033" v:metric="true" v:viewMarkup="false"/>

	<style type="text/css">
	<![CDATA[
		.st1 {marker-end:url(#mrkr4-6);stroke:#000000;stroke-linecap:butt;stroke-width:0.5}
		.st2 {fill:#000000;fill-opacity:1;stroke:#000000;stroke-opacity:1;stroke-width:0.21739130434783}
		.st3 {fill:none;stroke:none;stroke-linecap:butt;stroke-width:0.5}
		.st4 {fill:#000000;font-family:Arial;font-size:0.75em}
		.st5 {fill:#ffffff;stroke:none;stroke-linecap:round;stroke-linejoin:round;stroke-width:0.0169691}
		.st6 {fill:#000000;font-family:Arial;font-size:0.666664em}
		.st7 {stroke:#000000;stroke-linecap:butt;stroke-width:0.8}
		.st8 {stroke:#000000;stroke-dasharray:0.25,1;stroke-linecap:butt;stroke-width:0.25}
		.st9 {fill:none;fill-rule:evenodd;font-size:12;overflow:visible;stroke-linecap:square;stroke-miterlimit:3}
		.st10 {fill:#ffffff;stroke:none;stroke-linecap:butt;stroke-width:0.5}
		.st11 {stroke:#000000;stroke-linecap:butt;stroke-width:0.5}
		.st12 {fill:#ffffff;visibility:hidden}
	]]>
	</style>

	<defs id="Masters">
		<symbol id="master10" v:mID="10" class="st9">
			<title>Disconnect</title>
			<g id="group66-77" v:mID="66" v:groupContext="group">
				<title>Disconnect.47</title>
				<g id="master-shape67-78" v:mID="67" v:groupContext="shape" transform="translate(0.566929,0)">
					<title>Sheet.67</title>
					<rect x="0" y="124.057" width="1.88976" height="5.66929" class="st10"/>
				</g>
				<g id="master-shape68-80" v:mID="68" v:groupContext="shape" transform="translate(130.39,145.316) rotate(99.4623)">
					<title>Sheet.68</title>
					<path d="M0 129.32 C0.15 129.52 0.72 129.69 1.15 129.72 C1.58 129.75 1.86 129.65 2.34 129.41 C2.63 129.27 2.98
								 129.08 3.29 128.96 C4.56 128.46 5.03 129.01 5.75 129.32" class="st11"/>
				</g>
				<g id="master-shape69-83" v:mID="69" v:groupContext="shape" transform="translate(128.5,145.316) rotate(99.4623)">
					<title>Sheet.69</title>
					<path d="M0 129.32 C0.15 129.52 0.72 129.69 1.15 129.72 C1.58 129.75 1.86 129.65 2.34 129.41 C2.63 129.27 2.98
								 129.08 3.29 128.96 C4.56 128.46 5.03 129.01 5.75 129.32" class="st11"/>
				</g>
			</g>
		</symbol>
	</defs>
	<defs id="Markers">
		<g id="lend4">
			<path d="M 2 1 L -0 0 L 2 -1 L 2 1 " style="stroke:none"/>
		</g>
		<marker id="mrkr4-6" class="st2" v:arrowType="4" v:arrowSize="1" v:setback="9.2" refX="-9.2" orient="auto"
				markerUnits="strokeWidth">
			<use xlink:href="#lend4" transform="scale(-4.6,-4.6) "/>
		</marker>
	</defs>
	<g v:mID="0" v:index="1" v:groupContext="foregroundPage">
		<title>Page-1</title>
		<v:pageProperties v:drawingScale="0.0393701" v:pageScale="0.0393701" v:drawingUnits="24" v:shadowOffsetX="0"
				v:shadowOffsetY="0" v:shadowType="1" v:shadowScale="0"/>
		<g id="shape39-1" v:mID="39" v:groupContext="shape" transform="translate(309.234,138.231) rotate(151.39)">
			<title>Signal 2.93</title>
			<path d="M0 129.73 L66.44 129.73" class="st1"/>
		</g>
		<g id="shape40-7" v:mID="40" v:groupContext="shape" transform="translate(6.16929,-57.1142)">
			<title>Sheet.40</title>
			<desc>Vd.B[7] after operation</desc>
			<v:textBlock v:margins="rect(1,1,1,1)" v:tabSpace="42.5197"/>
			<v:textRect cx="49.6063" cy="124.726" width="99.22" height="10"/>
			<rect x="0" y="119.726" width="99.2126" height="10" class="st3"/>
			<text x="4.58" y="127.43" class="st4" v:langID="2057"><v:paragraph v:horizAlign="1"/><v:tabList/>Vd.B[7] after operation</text>		</g>
		<g id="shape41-10" v:mID="41" v:groupContext="shape" transform="translate(331.911,138.231) rotate(151.39)">
			<title>Signal 2.41</title>
			<path d="M0 129.73 L66.44 129.73" class="st1"/>
		</g>
		<g id="shape42-15" v:mID="42" v:groupContext="shape" transform="translate(118.388,113.636) rotate(-90)">
			<title>Signal 2.42</title>
			<path d="M0 129.73 L35.09 129.73" class="st1"/>
		</g>
		<g id="shape3-20" v:mID="3" v:groupContext="shape" transform="translate(0.5,-3.25591)">
			<title>Sheet.3</title>
			<desc>Vd.B[7] before operation</desc>
			<v:textBlock v:margins="rect(1,1,1,1)" v:tabSpace="42.5197"/>
			<v:textRect cx="50.565" cy="124.726" width="101.13" height="10"/>
			<rect x="0" y="119.726" width="101.13" height="10" class="st3"/>
			<text x="1.78" y="127.43" class="st4" v:langID="2057"><v:paragraph v:horizAlign="1"/><v:tabList/>Vd.B[7] before operation</text>		</g>
		<g id="shape4-23" v:mID="4" v:groupContext="shape" transform="translate(66.6142,-108.138)">
			<title>Sheet.4</title>
			<desc>Vn.B[7]</desc>
			<v:textBlock v:margins="rect(1,1,1,1)" v:tabSpace="42.5197"/>
			<v:textRect cx="17.9665" cy="124.726" width="35.94" height="10"/>
			<rect x="0" y="119.726" width="35.9331" height="10" class="st3"/>
			<text x="3.21" y="127.43" class="st4" v:langID="2057"><v:paragraph v:horizAlign="1"/><v:tabList/>Vn.B[7]</text>		</g>
		<g id="shape5-26" v:mID="5" v:groupContext="shape" transform="translate(141.065,113.636) rotate(-90)">
			<title>Signal 2.5</title>
			<path d="M0 129.73 L35.09 129.73" class="st1"/>
		</g>
		<g id="shape8-31" v:mID="8" v:groupContext="shape" transform="translate(95.7106,113.636) rotate(-90)">
			<title>Signal 2.8</title>
			<path d="M0 129.73 L35.09 129.73" class="st1"/>
		</g>
		<g id="shape24-36" v:mID="24" v:groupContext="shape" transform="translate(286.557,138.231) rotate(151.39)">
			<title>Signal 2.24</title>
			<path d="M0 129.73 L66.44 129.73" class="st1"/>
		</g>
		<g id="shape25-41" v:mID="25" v:groupContext="shape" transform="translate(263.88,138.231) rotate(151.39)">
			<title>Signal 2.25</title>
			<path d="M0 129.73 L66.44 129.73" class="st1"/>
		</g>
		<g id="shape30-46" v:mID="30" v:groupContext="shape" transform="translate(240.624,138.954) rotate(151.68)">
			<title>Signal 2.30</title>
			<path d="M0 129.73 L66.24 129.73" class="st1"/>
		</g>
		<g id="shape43-51" v:mID="43" v:groupContext="shape" transform="translate(102.547,-106.799)">
			<title>Sheet.43</title>
			<rect x="0" y="118.388" width="22.6772" height="11.3386" class="st5"/>
		</g>
		<g id="shape44-53" v:mID="44" v:groupContext="shape" transform="translate(102.547,-118.138)">
			<title>Sheet.44</title>
			<desc>63</desc>
			<v:textBlock v:margins="rect(0,0,0,0)" v:tabSpace="42.5197"/>
			<v:textRect cx="5.66929" cy="124.057" width="11.34" height="11.3386"/>
			<text x="1.22" y="126.46" class="st6" v:langID="2057"><v:paragraph v:horizAlign="1"/><v:tabList/>63</text>		</g>
		<g id="shape46-55" v:mID="46" v:groupContext="shape" transform="translate(272.626,-118.138)">
			<title>Sheet.46</title>
			<desc>56</desc>
			<v:textBlock v:margins="rect(0,0,0,0)" v:tabSpace="42.5197"/>
			<v:textRect cx="5.66929" cy="124.057" width="11.34" height="11.3386"/>
			<text x="1.22" y="126.46" class="st6" v:langID="2057"><v:paragraph v:horizAlign="1"/><v:tabList/>56</text>		</g>
		<g id="shape47-57" v:mID="47" v:groupContext="shape" transform="translate(283.965,-118.138)">
			<title>Sheet.47</title>
			<desc>55</desc>
			<v:textBlock v:margins="rect(0,0,0,0)" v:tabSpace="42.5197"/>
			<v:textRect cx="5.66929" cy="124.057" width="11.34" height="11.3386"/>
			<text x="1.22" y="126.46" class="st6" v:langID="2057"><v:paragraph v:horizAlign="1"/><v:tabList/>55</text>		</g>
		<g id="shape50-59" v:mID="50" v:groupContext="shape" transform="translate(125.224,-106.799)">
			<title>Sheet.50</title>
			<rect x="0" y="118.388" width="215.433" height="11.3386" class="st5"/>
		</g>
		<g id="shape51-61" v:mID="51" v:groupContext="shape" transform="translate(125.224,-106.799)">
			<title>Sheet.51</title>
			<path d="M0 118.39 L0 129.73" class="st7"/>
		</g>
		<g id="shape52-64" v:mID="52" v:groupContext="shape" transform="translate(193.256,-106.799)">
			<title>Sheet.52</title>
			<path d="M0 118.39 L0 129.73" class="st7"/>
		</g>
		<g id="shape54-67" v:mID="54" v:groupContext="shape" transform="translate(467.549,0.25) rotate(90)">
			<title>Signal 0.121</title>
			<path d="M0 129.73 L11.34 129.73" class="st8"/>
		</g>
		<g id="shape56-70" v:mID="56" v:groupContext="shape" transform="translate(413.691,0.25) rotate(90)">
			<title>Signal 0.123</title>
			<path d="M0 129.73 L11.34 129.73" class="st8"/>
		</g>
		<g id="shape57-73" v:mID="57" v:groupContext="shape" transform="translate(232.274,0.25) rotate(90)">
			<title>Signal 0.125</title>
			<path d="M0 129.73 L11.34 129.73" class="st8"/>
		</g>
		<use id="shape66-76" v:mID="66" xlink:href="#master10" transform="translate(308.059,-115.303)">
			<title>Disconnect.47</title>
		</use>
		<g id="group70-86" transform="translate(308.059,-103.965)" v:mID="70" v:groupContext="group">
			<title>Disconnect.51</title>
			<g id="shape71-87" v:mID="71" v:groupContext="shape" transform="translate(0.566929,0)">
				<title>Sheet.71</title>
				<rect x="0" y="124.057" width="1.88976" height="5.66929" class="st10"/>
			</g>
			<g id="shape72-89" v:mID="72" v:groupContext="shape" transform="translate(130.39,145.316) rotate(99.4623)">
				<title>Sheet.72</title>
				<path d="M0 129.32 C0.15 129.52 0.72 129.69 1.15 129.72 C1.58 129.75 1.86 129.65 2.34 129.41 C2.63 129.27 2.98 129.08
							 3.29 128.96 C4.56 128.46 5.03 129.01 5.75 129.32" class="st11"/>
			</g>
			<g id="shape73-92" v:mID="73" v:groupContext="shape" transform="translate(128.5,145.316) rotate(99.4623)">
				<title>Sheet.73</title>
				<path d="M0 129.32 C0.15 129.52 0.72 129.69 1.15 129.72 C1.58 129.75 1.86 129.65 2.34 129.41 C2.63 129.27 2.98 129.08
							 3.29 128.96 C4.56 128.46 5.03 129.01 5.75 129.32" class="st11"/>
			</g>
		</g>
		<g id="shape75-95" v:mID="75" v:groupContext="shape" transform="translate(102.547,-106.799)">
			<title>Sheet.75</title>
			<rect x="0" y="118.388" width="235.276" height="11.3386" class="st12"/>
			<rect x="0" y="118.388" width="235.276" height="11.3386" class="st7"/>
		</g>
		<g id="shape76-98" v:mID="76" v:groupContext="shape" transform="translate(147.902,-106.799)">
			<title>Sheet.76</title>
			<path d="M0 118.39 L0 129.73" class="st7"/>
		</g>
		<g id="shape77-101" v:mID="77" v:groupContext="shape" transform="translate(170.579,-106.799)">
			<title>Sheet.77</title>
			<path d="M0 118.39 L0 129.73" class="st7"/>
		</g>
		<g id="shape55-104" v:mID="55" v:groupContext="shape" transform="translate(329.319,-118.138)">
			<title>Sheet.55</title>
			<desc>0</desc>
			<v:textBlock v:margins="rect(0,0,0,0)" v:tabSpace="42.5197"/>
			<v:textRect cx="5.66929" cy="124.057" width="11.34" height="11.3386"/>
			<text x="3.44" y="126.46" class="st6" v:langID="2057"><v:paragraph v:horizAlign="1"/><v:tabList/>0</text>		</g>
		<g id="shape58-106" v:mID="58" v:groupContext="shape" transform="translate(215.933,-106.799)">
			<title>Sheet.58</title>
			<path d="M0 118.39 L0 129.73" class="st7"/>
		</g>
		<g id="shape59-109" v:mID="59" v:groupContext="shape" transform="translate(238.61,-106.799)">
			<title>Sheet.59</title>
			<path d="M0 118.39 L0 129.73" class="st7"/>
		</g>
		<g id="shape60-112" v:mID="60" v:groupContext="shape" transform="translate(261.287,-106.799)">
			<title>Sheet.60</title>
			<path d="M0 118.39 L0 129.73" class="st7"/>
		</g>
		<g id="shape61-115" v:mID="61" v:groupContext="shape" transform="translate(283.965,-106.799)">
			<title>Sheet.61</title>
			<path d="M0 118.39 L0 129.73" class="st7"/>
		</g>
		<g id="shape62-118" v:mID="62" v:groupContext="shape" transform="translate(102.547,-56.4843)">
			<title>Sheet.62</title>
			<rect x="0" y="118.388" width="22.6772" height="11.3386" class="st5"/>
		</g>
		<g id="shape63-120" v:mID="63" v:groupContext="shape" transform="translate(102.547,-67.8228)">
			<title>Sheet.63</title>
			<desc>63</desc>
			<v:textBlock v:margins="rect(0,0,0,0)" v:tabSpace="42.5197"/>
			<v:textRect cx="5.66929" cy="124.057" width="11.34" height="11.3386"/>
			<text x="1.22" y="126.46" class="st6" v:langID="2057"><v:paragraph v:horizAlign="1"/><v:tabList/>63</text>		</g>
		<g id="shape64-122" v:mID="64" v:groupContext="shape" transform="translate(272.626,-67.8228)">
			<title>Sheet.64</title>
			<desc>56</desc>
			<v:textBlock v:margins="rect(0,0,0,0)" v:tabSpace="42.5197"/>
			<v:textRect cx="5.66929" cy="124.057" width="11.34" height="11.3386"/>
			<text x="1.22" y="126.46" class="st6" v:langID="2057"><v:paragraph v:horizAlign="1"/><v:tabList/>56</text>		</g>
		<g id="shape65-124" v:mID="65" v:groupContext="shape" transform="translate(283.965,-67.8228)">
			<title>Sheet.65</title>
			<desc>55</desc>
			<v:textBlock v:margins="rect(0,0,0,0)" v:tabSpace="42.5197"/>
			<v:textRect cx="5.66929" cy="124.057" width="11.34" height="11.3386"/>
			<text x="1.22" y="126.46" class="st6" v:langID="2057"><v:paragraph v:horizAlign="1"/><v:tabList/>55</text>		</g>
		<g id="shape74-126" v:mID="74" v:groupContext="shape" transform="translate(125.224,-56.4843)">
			<title>Sheet.74</title>
			<rect x="0" y="118.388" width="215.433" height="11.3386" class="st5"/>
		</g>
		<g id="shape78-128" v:mID="78" v:groupContext="shape" transform="translate(125.224,-56.4843)">
			<title>Sheet.78</title>
			<path d="M0 118.39 L0 129.73" class="st7"/>
		</g>
		<g id="shape79-131" v:mID="79" v:groupContext="shape" transform="translate(193.256,-56.4843)">
			<title>Sheet.79</title>
			<path d="M0 118.39 L0 129.73" class="st7"/>
		</g>
		<g id="shape80-134" v:mID="80" v:groupContext="shape" transform="translate(467.549,50.565) rotate(90)">
			<title>Signal 0.80</title>
			<path d="M0 129.73 L11.34 129.73" class="st8"/>
		</g>
		<g id="shape81-137" v:mID="81" v:groupContext="shape" transform="translate(413.691,50.565) rotate(90)">
			<title>Signal 0.81</title>
			<path d="M0 129.73 L11.34 129.73" class="st8"/>
		</g>
		<g id="shape82-140" v:mID="82" v:groupContext="shape" transform="translate(232.274,50.565) rotate(90)">
			<title>Signal 0.82</title>
			<path d="M0 129.73 L11.34 129.73" class="st8"/>
		</g>
		<use id="shape83-143" v:mID="83" xlink:href="#master10" transform="translate(308.059,-64.9882)">
			<title>Disconnect.83</title>
		</use>
		<g id="group87-144" transform="translate(308.059,-53.6496)" v:mID="87" v:groupContext="group">
			<title>Disconnect.87</title>
			<g id="master-shape88-145" v:mID="88" v:groupContext="shape" transform="translate(0.566929,0)">
				<title>Sheet.88</title>
				<rect x="0" y="124.057" width="1.88976" height="5.66929" class="st10"/>
			</g>
			<g id="master-shape89-147" v:mID="89" v:groupContext="shape" transform="translate(130.39,145.316) rotate(99.4623)">
				<title>Sheet.89</title>
				<path d="M0 129.32 C0.15 129.52 0.72 129.69 1.15 129.72 C1.58 129.75 1.86 129.65 2.34 129.41 C2.63 129.27 2.98 129.08
							 3.29 128.96 C4.56 128.46 5.03 129.01 5.75 129.32" class="st11"/>
			</g>
			<g id="master-shape90-150" v:mID="90" v:groupContext="shape" transform="translate(128.5,145.316) rotate(99.4623)">
				<title>Sheet.90</title>
				<path d="M0 129.32 C0.15 129.52 0.72 129.69 1.15 129.72 C1.58 129.75 1.86 129.65 2.34 129.41 C2.63 129.27 2.98 129.08
							 3.29 128.96 C4.56 128.46 5.03 129.01 5.75 129.32" class="st11"/>
			</g>
		</g>
		<g id="master-shape91-153" v:mID="91" v:groupContext="shape" transform="translate(102.547,-56.4843)">
			<title>Sheet.91</title>
			<rect x="0" y="118.388" width="235.276" height="11.3386" class="st12"/>
			<rect x="0" y="118.388" width="235.276" height="11.3386" class="st7"/>
		</g>
		<g id="master-shape92-156" v:mID="92" v:groupContext="shape" transform="translate(147.902,-56.4843)">
			<title>Sheet.92</title>
			<path d="M0 118.39 L0 129.73" class="st7"/>
		</g>
		<g id="master-shape93-159" v:mID="93" v:groupContext="shape" transform="translate(170.579,-56.4843)">
			<title>Sheet.93</title>
			<path d="M0 118.39 L0 129.73" class="st7"/>
		</g>
		<g id="master-shape94-162" v:mID="94" v:groupContext="shape" transform="translate(329.319,-67.8228)">
			<title>Sheet.94</title>
			<desc>0</desc>
			<v:textBlock v:margins="rect(0,0,0,0)" v:tabSpace="42.5197"/>
			<v:textRect cx="5.66929" cy="124.057" width="11.34" height="11.3386"/>
			<text x="3.44" y="126.46" class="st6" v:langID="2057"><v:paragraph v:horizAlign="1"/><v:tabList/>0</text>		</g>
		<g id="master-shape95-164" v:mID="95" v:groupContext="shape" transform="translate(215.933,-56.4843)">
			<title>Sheet.95</title>
			<path d="M0 118.39 L0 129.73" class="st7"/>
		</g>
		<g id="master-shape96-167" v:mID="96" v:groupContext="shape" transform="translate(238.61,-56.4843)">
			<title>Sheet.96</title>
			<path d="M0 118.39 L0 129.73" class="st7"/>
		</g>
		<g id="master-shape97-170" v:mID="97" v:groupContext="shape" transform="translate(261.287,-56.4843)">
			<title>Sheet.97</title>
			<path d="M0 118.39 L0 129.73" class="st7"/>
		</g>
		<g id="master-shape98-173" v:mID="98" v:groupContext="shape" transform="translate(283.965,-56.4843)">
			<title>Sheet.98</title>
			<path d="M0 118.39 L0 129.73" class="st7"/>
		</g>
		<g id="master-shape99-176" v:mID="99" v:groupContext="shape" transform="translate(102.547,-3.33465)">
			<title>Sheet.99</title>
			<rect x="0" y="118.388" width="22.6772" height="11.3386" class="st5"/>
		</g>
		<g id="master-shape100-178" v:mID="100" v:groupContext="shape" transform="translate(102.547,-14.6732)">
			<title>Sheet.100</title>
			<desc>63</desc>
			<v:textBlock v:margins="rect(0,0,0,0)" v:tabSpace="42.5197"/>
			<v:textRect cx="5.66929" cy="124.057" width="11.34" height="11.3386"/>
			<text x="1.22" y="126.46" class="st6" v:langID="2057"><v:paragraph v:horizAlign="1"/><v:tabList/>63</text>		</g>
		<g id="master-shape101-180" v:mID="101" v:groupContext="shape" transform="translate(272.626,-14.6732)">
			<title>Sheet.101</title>
			<desc>56</desc>
			<v:textBlock v:margins="rect(0,0,0,0)" v:tabSpace="42.5197"/>
			<v:textRect cx="5.66929" cy="124.057" width="11.34" height="11.3386"/>
			<text x="1.22" y="126.46" class="st6" v:langID="2057"><v:paragraph v:horizAlign="1"/><v:tabList/>56</text>		</g>
		<g id="master-shape102-182" v:mID="102" v:groupContext="shape" transform="translate(283.965,-14.6732)">
			<title>Sheet.102</title>
			<desc>55</desc>
			<v:textBlock v:margins="rect(0,0,0,0)" v:tabSpace="42.5197"/>
			<v:textRect cx="5.66929" cy="124.057" width="11.34" height="11.3386"/>
			<text x="1.22" y="126.46" class="st6" v:langID="2057"><v:paragraph v:horizAlign="1"/><v:tabList/>55</text>		</g>
		<g id="master-shape103-184" v:mID="103" v:groupContext="shape" transform="translate(125.224,-3.33465)">
			<title>Sheet.103</title>
			<rect x="0" y="118.388" width="215.433" height="11.3386" class="st5"/>
		</g>
		<g id="master-shape104-186" v:mID="104" v:groupContext="shape" transform="translate(125.224,-3.33465)">
			<title>Sheet.104</title>
			<path d="M0 118.39 L0 129.73" class="st7"/>
		</g>
		<g id="master-shape105-189" v:mID="105" v:groupContext="shape" transform="translate(193.256,-3.33465)">
			<title>Sheet.105</title>
			<path d="M0 118.39 L0 129.73" class="st7"/>
		</g>
		<g id="master-shape106-192" v:mID="106" v:groupContext="shape" transform="translate(467.549,103.715) rotate(90)">
			<title>Signal 0.106</title>
			<path d="M0 129.73 L11.34 129.73" class="st8"/>
		</g>
		<g id="master-shape107-195" v:mID="107" v:groupContext="shape" transform="translate(413.691,103.715) rotate(90)">
			<title>Signal 0.107</title>
			<path d="M0 129.73 L11.34 129.73" class="st8"/>
		</g>
		<g id="master-shape108-198" v:mID="108" v:groupContext="shape" transform="translate(232.274,103.715) rotate(90)">
			<title>Signal 0.108</title>
			<path d="M0 129.73 L11.34 129.73" class="st8"/>
		</g>
		<use id="shape109-201" v:mID="109" xlink:href="#master10" transform="translate(308.059,-11.8386)">
			<title>Disconnect.109</title>
		</use>
		<g id="group113-202" transform="translate(308.059,-0.5)" v:mID="113" v:groupContext="group">
			<title>Disconnect.113</title>
			<g id="master-shape114-203" v:mID="114" v:groupContext="shape" transform="translate(0.566929,0)">
				<title>Sheet.114</title>
				<rect x="0" y="124.057" width="1.88976" height="5.66929" class="st10"/>
			</g>
			<g id="master-shape115-205" v:mID="115" v:groupContext="shape" transform="translate(130.39,145.316) rotate(99.4623)">
				<title>Sheet.115</title>
				<path d="M0 129.32 C0.15 129.52 0.72 129.69 1.15 129.72 C1.58 129.75 1.86 129.65 2.34 129.41 C2.63 129.27 2.98 129.08
							 3.29 128.96 C4.56 128.46 5.03 129.01 5.75 129.32" class="st11"/>
			</g>
			<g id="master-shape116-208" v:mID="116" v:groupContext="shape" transform="translate(128.5,145.316) rotate(99.4623)">
				<title>Sheet.116</title>
				<path d="M0 129.32 C0.15 129.52 0.72 129.69 1.15 129.72 C1.58 129.75 1.86 129.65 2.34 129.41 C2.63 129.27 2.98 129.08
							 3.29 128.96 C4.56 128.46 5.03 129.01 5.75 129.32" class="st11"/>
			</g>
		</g>
		<g id="master-shape117-211" v:mID="117" v:groupContext="shape" transform="translate(102.547,-3.33465)">
			<title>Sheet.117</title>
			<rect x="0" y="118.388" width="235.276" height="11.3386" class="st12"/>
			<rect x="0" y="118.388" width="235.276" height="11.3386" class="st7"/>
		</g>
		<g id="master-shape118-214" v:mID="118" v:groupContext="shape" transform="translate(147.902,-3.33465)">
			<title>Sheet.118</title>
			<path d="M0 118.39 L0 129.73" class="st7"/>
		</g>
		<g id="master-shape119-217" v:mID="119" v:groupContext="shape" transform="translate(170.579,-3.33465)">
			<title>Sheet.119</title>
			<path d="M0 118.39 L0 129.73" class="st7"/>
		</g>
		<g id="master-shape120-220" v:mID="120" v:groupContext="shape" transform="translate(329.319,-14.6732)">
			<title>Sheet.120</title>
			<desc>0</desc>
			<v:textBlock v:margins="rect(0,0,0,0)" v:tabSpace="42.5197"/>
			<v:textRect cx="5.66929" cy="124.057" width="11.34" height="11.3386"/>
			<text x="3.44" y="126.46" class="st6" v:langID="2057"><v:paragraph v:horizAlign="1"/><v:tabList/>0</text>		</g>
		<g id="master-shape121-222" v:mID="121" v:groupContext="shape" transform="translate(215.933,-3.33465)">
			<title>Sheet.121</title>
			<path d="M0 118.39 L0 129.73" class="st7"/>
		</g>
		<g id="master-shape122-225" v:mID="122" v:groupContext="shape" transform="translate(238.61,-3.33465)">
			<title>Sheet.122</title>
			<path d="M0 118.39 L0 129.73" class="st7"/>
		</g>
		<g id="master-shape123-228" v:mID="123" v:groupContext="shape" transform="translate(261.287,-3.33465)">
			<title>Sheet.123</title>
			<path d="M0 118.39 L0 129.73" class="st7"/>
		</g>
		<g id="master-shape124-231" v:mID="124" v:groupContext="shape" transform="translate(283.965,-3.33465)">
			<title>Sheet.124</title>
			<path d="M0 118.39 L0 129.73" class="st7"/>
		</g>
	</g>
</svg>
