<?xml version="1.0" encoding="UTF-8" standalone="no"?>
<!DOCTYPE svg PUBLIC "-//W3C//DTD SVG 1.0//EN" "http://www.w3.org/TR/2001/REC-SVG-20010904/DTD/svg10.dtd">
<!-- Generated by Microsoft Visio 11.0, SVG Export, v1.0 deinterleaving_an_array_of_3_element_structures.svg Page-1 -->
<svg xmlns="http://www.w3.org/2000/svg" xmlns:v="http://schemas.microsoft.com/visio/2003/SVGExtensions/" width="5.3184in"
xmlns:xlink="http://www.w3.org/1999/xlink" 
		height="2.25798in" viewBox="0 0 382.925 162.575" xml:space="preserve" color-interpolation-filters="sRGB" class="st10">
	<v:documentProperties v:langID="1033" v:metric="true" v:viewMarkup="false"/>

	<style type="text/css">
	<![CDATA[
		.st1 {stroke:#000000;stroke-linecap:butt;stroke-width:0.5}
		.st2 {fill:none;stroke:none;stroke-linecap:butt;stroke-width:0.5}
		.st3 {fill:#000000;font-family:Arial;font-size:0.666664em}
		.st4 {fill:#ffffff;stroke:none;stroke-linecap:butt;stroke-width:0.5}
		.st5 {fill:none;stroke:#000000;stroke-linecap:butt;stroke-width:0.5}
		.st6 {baseline-shift:-32.4939%;font-size:0.649878em}
		.st7 {marker-start:url(#mrkr4-184);stroke:#000000;stroke-linecap:butt;stroke-width:0.5}
		.st8 {fill:#000000;fill-opacity:1;stroke:#000000;stroke-opacity:1;stroke-width:0.21739130434783}
		.st9 {font-size:1em}
		.st10 {fill:none;fill-rule:evenodd;font-size:12;overflow:visible;stroke-linecap:square;stroke-miterlimit:3}
	]]>
	</style>

	<defs id="Markers">
		<g id="lend4">
			<path d="M 2 1 L -0 0 L 2 -1 L 2 1 " style="stroke:none"/>
		</g>
		<marker id="mrkr4-184" class="st8" v:arrowType="4" v:arrowSize="1" v:setback="8.48" refX="8.48" orient="auto"
				markerUnits="strokeWidth">
			<use xlink:href="#lend4" transform="scale(4.6) "/>
		</marker>
	</defs>
	<g v:mID="0" v:index="1" v:groupContext="foregroundPage">
		<title>Page-1</title>
		<v:pageProperties v:drawingScale="0.0393701" v:pageScale="0.0393701" v:drawingUnits="24" v:shadowOffsetX="0"
				v:shadowOffsetY="0" v:shadowType="1" v:shadowScale="0"/>
		<g id="shape1-1" v:mID="1" v:groupContext="shape" transform="translate(258.035,9.00394) rotate(90)">
			<title>Sheet.1</title>
			<path d="M0 162.57 L147.4 162.57" class="st1"/>
		</g>
		<g id="shape2-4" v:mID="2" v:groupContext="shape" transform="translate(283.547,9.00394) rotate(90)">
			<title>Sheet.2</title>
			<path d="M0 162.57 L147.4 162.57" class="st1"/>
		</g>
		<g id="shape3-7" v:mID="3" v:groupContext="shape" transform="translate(95.4606,-147.902)">
			<title>Sheet.3</title>
			<path d="M0 162.57 L25.51 162.57" class="st1"/>
		</g>
		<g id="shape4-10" v:mID="4" v:groupContext="shape" transform="translate(95.4606,-136.563)">
			<title>Sheet.4</title>
			<path d="M0 162.57 L25.51 162.57" class="st1"/>
		</g>
		<g id="shape5-13" v:mID="5" v:groupContext="shape" transform="translate(95.4606,-125.224)">
			<title>Sheet.5</title>
			<path d="M0 162.57 L25.51 162.57" class="st1"/>
		</g>
		<g id="shape6-16" v:mID="6" v:groupContext="shape" transform="translate(95.4606,-113.886)">
			<title>Sheet.6</title>
			<path d="M0 162.57 L25.51 162.57" class="st1"/>
		</g>
		<g id="shape7-19" v:mID="7" v:groupContext="shape" transform="translate(95.4606,-102.547)">
			<title>Sheet.7</title>
			<path d="M0 162.57 L25.51 162.57" class="st1"/>
		</g>
		<g id="shape8-22" v:mID="8" v:groupContext="shape" transform="translate(95.4606,-91.2087)">
			<title>Sheet.8</title>
			<path d="M0 162.57 L25.51 162.57" class="st1"/>
		</g>
		<g id="shape9-25" v:mID="9" v:groupContext="shape" transform="translate(95.4606,-79.8701)">
			<title>Sheet.9</title>
			<path d="M0 162.57 L25.51 162.57" class="st1"/>
		</g>
		<g id="shape10-28" v:mID="10" v:groupContext="shape" transform="translate(95.4606,-68.5315)">
			<title>Sheet.10</title>
			<path d="M0 162.57 L25.51 162.57" class="st1"/>
		</g>
		<g id="shape11-31" v:mID="11" v:groupContext="shape" transform="translate(95.4606,-57.1929)">
			<title>Sheet.11</title>
			<path d="M0 162.57 L25.51 162.57" class="st1"/>
		</g>
		<g id="shape12-34" v:mID="12" v:groupContext="shape" transform="translate(95.4606,-45.8543)">
			<title>Sheet.12</title>
			<path d="M0 162.57 L25.51 162.57" class="st1"/>
		</g>
		<g id="shape13-37" v:mID="13" v:groupContext="shape" transform="translate(95.4606,-34.5157)">
			<title>Sheet.13</title>
			<path d="M0 162.57 L25.51 162.57" class="st1"/>
		</g>
		<g id="shape14-40" v:mID="14" v:groupContext="shape" transform="translate(95.4606,-23.1772)">
			<title>Sheet.14</title>
			<path d="M0 162.57 L25.51 162.57" class="st1"/>
		</g>
		<g id="shape15-43" v:mID="15" v:groupContext="shape" transform="translate(95.4606,-11.8386)">
			<title>Sheet.15</title>
			<path d="M0 162.57 L25.51 162.57" class="st1"/>
		</g>
		<g id="shape16-46" v:mID="16" v:groupContext="shape" transform="translate(95.4606,-136.563)">
			<title>Sheet.16</title>
			<desc>A[0].x</desc>
			<v:textBlock v:margins="rect(1,1,1,1)" v:tabSpace="42.5197"/>
			<v:textRect cx="12.7559" cy="156.906" width="25.52" height="11.3386"/>
			<rect x="0" y="151.236" width="25.5118" height="11.3386" class="st2"/>
			<text x="2.53" y="159.31" class="st3" v:langID="1033"><v:paragraph v:horizAlign="1"/><v:tabList/>A[0].x</text>		</g>
		<g id="shape17-49" v:mID="17" v:groupContext="shape" transform="translate(95.4606,-125.224)">
			<title>Sheet.17</title>
			<desc>A[0].y</desc>
			<v:textBlock v:margins="rect(1,1,1,1)" v:tabSpace="42.5197"/>
			<v:textRect cx="12.7559" cy="156.906" width="25.52" height="11.3386"/>
			<rect x="0" y="151.236" width="25.5118" height="11.3386" class="st2"/>
			<text x="2.53" y="159.31" class="st3" v:langID="1033"><v:paragraph v:horizAlign="1"/><v:tabList/>A[0].y</text>		</g>
		<g id="shape18-52" v:mID="18" v:groupContext="shape" transform="translate(95.4606,-113.886)">
			<title>Sheet.18</title>
			<desc>A[0].z</desc>
			<v:textBlock v:margins="rect(1,1,1,1)" v:tabSpace="42.5197"/>
			<v:textRect cx="12.7559" cy="156.906" width="25.52" height="11.3386"/>
			<rect x="0" y="151.236" width="25.5118" height="11.3386" class="st2"/>
			<text x="2.53" y="159.31" class="st3" v:langID="1033"><v:paragraph v:horizAlign="1"/><v:tabList/>A[0].z</text>		</g>
		<g id="shape19-55" v:mID="19" v:groupContext="shape" transform="translate(95.4606,-102.547)">
			<title>Sheet.19</title>
			<desc>A[1].x</desc>
			<v:textBlock v:margins="rect(1,1,1,1)" v:tabSpace="42.5197"/>
			<v:textRect cx="12.7559" cy="156.906" width="25.52" height="11.3386"/>
			<rect x="0" y="151.236" width="25.5118" height="11.3386" class="st2"/>
			<text x="2.53" y="159.31" class="st3" v:langID="1033"><v:paragraph v:horizAlign="1"/><v:tabList/>A[1].x</text>		</g>
		<g id="shape20-58" v:mID="20" v:groupContext="shape" transform="translate(95.4606,-91.2087)">
			<title>Sheet.20</title>
			<desc>A[1].y</desc>
			<v:textBlock v:margins="rect(1,1,1,1)" v:tabSpace="42.5197"/>
			<v:textRect cx="12.7559" cy="156.906" width="25.52" height="11.3386"/>
			<rect x="0" y="151.236" width="25.5118" height="11.3386" class="st2"/>
			<text x="2.53" y="159.31" class="st3" v:langID="1033"><v:paragraph v:horizAlign="1"/><v:tabList/>A[1].y</text>		</g>
		<g id="shape21-61" v:mID="21" v:groupContext="shape" transform="translate(95.4606,-79.8701)">
			<title>Sheet.21</title>
			<desc>A[1].z</desc>
			<v:textBlock v:margins="rect(1,1,1,1)" v:tabSpace="42.5197"/>
			<v:textRect cx="12.7559" cy="156.906" width="25.52" height="11.3386"/>
			<rect x="0" y="151.236" width="25.5118" height="11.3386" class="st2"/>
			<text x="2.53" y="159.31" class="st3" v:langID="1033"><v:paragraph v:horizAlign="1"/><v:tabList/>A[1].z</text>		</g>
		<g id="shape22-64" v:mID="22" v:groupContext="shape" transform="translate(95.4606,-68.5315)">
			<title>Sheet.22</title>
			<desc>A[2].x</desc>
			<v:textBlock v:margins="rect(1,1,1,1)" v:tabSpace="42.5197"/>
			<v:textRect cx="12.7559" cy="156.906" width="25.52" height="11.3386"/>
			<rect x="0" y="151.236" width="25.5118" height="11.3386" class="st2"/>
			<text x="2.53" y="159.31" class="st3" v:langID="1033"><v:paragraph v:horizAlign="1"/><v:tabList/>A[2].x</text>		</g>
		<g id="shape23-67" v:mID="23" v:groupContext="shape" transform="translate(95.4606,-57.1929)">
			<title>Sheet.23</title>
			<desc>A[2].y</desc>
			<v:textBlock v:margins="rect(1,1,1,1)" v:tabSpace="42.5197"/>
			<v:textRect cx="12.7559" cy="156.906" width="25.52" height="11.3386"/>
			<rect x="0" y="151.236" width="25.5118" height="11.3386" class="st2"/>
			<text x="2.53" y="159.31" class="st3" v:langID="1033"><v:paragraph v:horizAlign="1"/><v:tabList/>A[2].y</text>		</g>
		<g id="shape24-70" v:mID="24" v:groupContext="shape" transform="translate(95.4606,-45.8543)">
			<title>Sheet.24</title>
			<desc>A[2].z</desc>
			<v:textBlock v:margins="rect(1,1,1,1)" v:tabSpace="42.5197"/>
			<v:textRect cx="12.7559" cy="156.906" width="25.52" height="11.3386"/>
			<rect x="0" y="151.236" width="25.5118" height="11.3386" class="st2"/>
			<text x="2.53" y="159.31" class="st3" v:langID="1033"><v:paragraph v:horizAlign="1"/><v:tabList/>A[2].z</text>		</g>
		<g id="shape25-73" v:mID="25" v:groupContext="shape" transform="translate(95.4606,-34.5157)">
			<title>Sheet.25</title>
			<desc>A[3].x</desc>
			<v:textBlock v:margins="rect(1,1,1,1)" v:tabSpace="42.5197"/>
			<v:textRect cx="12.7559" cy="156.906" width="25.52" height="11.3386"/>
			<rect x="0" y="151.236" width="25.5118" height="11.3386" class="st2"/>
			<text x="2.53" y="159.31" class="st3" v:langID="1033"><v:paragraph v:horizAlign="1"/><v:tabList/>A[3].x</text>		</g>
		<g id="shape26-76" v:mID="26" v:groupContext="shape" transform="translate(95.4606,-23.1772)">
			<title>Sheet.26</title>
			<desc>A[3].y</desc>
			<v:textBlock v:margins="rect(1,1,1,1)" v:tabSpace="42.5197"/>
			<v:textRect cx="12.7559" cy="156.906" width="25.52" height="11.3386"/>
			<rect x="0" y="151.236" width="25.5118" height="11.3386" class="st2"/>
			<text x="2.53" y="159.31" class="st3" v:langID="1033"><v:paragraph v:horizAlign="1"/><v:tabList/>A[3].y</text>		</g>
		<g id="shape27-79" v:mID="27" v:groupContext="shape" transform="translate(95.4606,-11.8386)">
			<title>Sheet.27</title>
			<desc>A[3].z</desc>
			<v:textBlock v:margins="rect(1,1,1,1)" v:tabSpace="42.5197"/>
			<v:textRect cx="12.7559" cy="156.906" width="25.52" height="11.3386"/>
			<rect x="0" y="151.236" width="25.5118" height="11.3386" class="st2"/>
			<text x="2.53" y="159.31" class="st3" v:langID="1033"><v:paragraph v:horizAlign="1"/><v:tabList/>A[3].z</text>		</g>
		<g id="shape28-82" v:mID="28" v:groupContext="shape" transform="translate(77.0354,-150.736)">
			<title>Sheet.28</title>
			<desc>Memory</desc>
			<v:textBlock v:margins="rect(1,1,1,1)" v:tabSpace="42.5197"/>
			<v:textRect cx="15.5906" cy="156.906" width="31.19" height="11.3386"/>
			<rect x="0" y="151.236" width="31.1811" height="11.3386" class="st4"/>
			<text x="1.15" y="159.31" class="st3" v:langID="1033"><v:paragraph v:horizAlign="1"/><v:tabList/>Memory</text>		</g>
		<g id="group38-85" transform="translate(132.311,-0.5)" v:mID="38" v:groupContext="group">
			<title>Sheet.38</title>
			<g id="shape29-86" v:mID="29" v:groupContext="shape">
				<title>Sheet.29</title>
				<rect x="0" y="151.236" width="45.3543" height="11.3386" class="st5"/>
			</g>
			<g id="shape30-88" v:mID="30" v:groupContext="shape" transform="translate(173.913,151.236) rotate(90)">
				<title>Sheet.30</title>
				<path d="M0 162.57 L11.34 162.57" class="st1"/>
			</g>
			<g id="shape31-91" v:mID="31" v:groupContext="shape" transform="translate(185.252,151.236) rotate(90)">
				<title>Sheet.31</title>
				<path d="M0 162.57 L11.34 162.57" class="st1"/>
			</g>
			<g id="shape32-94" v:mID="32" v:groupContext="shape" transform="translate(196.591,151.236) rotate(90)">
				<title>Sheet.32</title>
				<path d="M0 162.57 L11.34 162.57" class="st1"/>
			</g>
			<g id="shape33-97" v:mID="33" v:groupContext="shape">
				<title>Sheet.33</title>
				<desc>Z3</desc>
				<v:textBlock v:margins="rect(1,1,1,1)" v:tabSpace="42.5197"/>
				<v:textRect cx="5.66929" cy="156.906" width="11.34" height="11.3386"/>
				<rect x="0" y="151.236" width="11.3386" height="11.3386" class="st2"/>
				<text x="1.78" y="159.31" class="st3" v:langID="1033"><v:paragraph v:horizAlign="1"/><v:tabList/>Z<tspan
							dy="-0.287em" class="st6" v:baseFontSize="8">3</tspan></text>			</g>
			<g id="shape34-101" v:mID="34" v:groupContext="shape" transform="translate(11.3386,0)">
				<title>Sheet.34</title>
				<desc>Z2</desc>
				<v:textBlock v:margins="rect(1,1,1,1)" v:tabSpace="42.5197"/>
				<v:textRect cx="5.66929" cy="156.906" width="11.34" height="11.3386"/>
				<rect x="0" y="151.236" width="11.3386" height="11.3386" class="st2"/>
				<text x="1.78" y="159.31" class="st3" v:langID="1033"><v:paragraph v:horizAlign="1"/><v:tabList/>Z<tspan
							dy="-0.287em" class="st6" v:baseFontSize="8">2</tspan></text>			</g>
			<g id="shape35-105" v:mID="35" v:groupContext="shape" transform="translate(22.6772,0)">
				<title>Sheet.35</title>
				<desc>Z1</desc>
				<v:textBlock v:margins="rect(1,1,1,1)" v:tabSpace="42.5197"/>
				<v:textRect cx="5.66929" cy="156.906" width="11.34" height="11.3386"/>
				<rect x="0" y="151.236" width="11.3386" height="11.3386" class="st2"/>
				<text x="1.78" y="159.31" class="st3" v:langID="1033"><v:paragraph v:horizAlign="1"/><v:tabList/>Z<tspan
							dy="-0.287em" class="st6" v:baseFontSize="8">1</tspan></text>			</g>
			<g id="shape36-109" v:mID="36" v:groupContext="shape" transform="translate(34.0157,0)">
				<title>Sheet.36</title>
				<desc>Z0</desc>
				<v:textBlock v:margins="rect(1,1,1,1)" v:tabSpace="42.5197"/>
				<v:textRect cx="5.66929" cy="156.906" width="11.34" height="11.3386"/>
				<rect x="0" y="151.236" width="11.3386" height="11.3386" class="st2"/>
				<text x="1.78" y="159.31" class="st3" v:langID="1033"><v:paragraph v:horizAlign="1"/><v:tabList/>Z<tspan
							dy="-0.287em" class="st6" v:baseFontSize="8">0</tspan></text>			</g>
			<g id="shape37-113" v:mID="37" v:groupContext="shape" transform="translate(45.3543,0)">
				<title>Sheet.37</title>
				<desc>D2</desc>
				<v:textBlock v:margins="rect(1,1,1,1)" v:tabSpace="42.5197"/>
				<v:textRect cx="7.08661" cy="156.906" width="14.18" height="11.3386"/>
				<rect x="0" y="151.236" width="14.1732" height="11.3386" class="st2"/>
				<text x="1.97" y="159.31" class="st3" v:langID="1033"><v:paragraph v:horizAlign="1"/><v:tabList/>D2</text>			</g>
		</g>
		<g id="shape40-116" v:mID="40" v:groupContext="shape" transform="translate(204.594,-11.8386)">
			<title>Sheet.40</title>
			<rect x="0" y="151.236" width="45.3543" height="11.3386" class="st5"/>
		</g>
		<g id="shape41-118" v:mID="41" v:groupContext="shape" transform="translate(378.508,139.398) rotate(90)">
			<title>Sheet.41</title>
			<path d="M0 162.57 L11.34 162.57" class="st1"/>
		</g>
		<g id="shape42-121" v:mID="42" v:groupContext="shape" transform="translate(389.846,139.398) rotate(90)">
			<title>Sheet.42</title>
			<path d="M0 162.57 L11.34 162.57" class="st1"/>
		</g>
		<g id="shape43-124" v:mID="43" v:groupContext="shape" transform="translate(401.185,139.398) rotate(90)">
			<title>Sheet.43</title>
			<path d="M0 162.57 L11.34 162.57" class="st1"/>
		</g>
		<g id="shape44-127" v:mID="44" v:groupContext="shape" transform="translate(204.594,-11.8386)">
			<title>Sheet.44</title>
			<desc>Y3</desc>
			<v:textBlock v:margins="rect(1,1,1,1)" v:tabSpace="42.5197"/>
			<v:textRect cx="5.66929" cy="156.906" width="11.34" height="11.3386"/>
			<rect x="0" y="151.236" width="11.3386" height="11.3386" class="st2"/>
			<text x="1.56" y="159.31" class="st3" v:langID="1033"><v:paragraph v:horizAlign="1"/><v:tabList/>Y<tspan dy="-0.287em"
						class="st6" v:baseFontSize="8">3</tspan></text>		</g>
		<g id="shape46-131" v:mID="46" v:groupContext="shape" transform="translate(227.272,-11.8386)">
			<title>Sheet.46</title>
			<desc>Y1</desc>
			<v:textBlock v:margins="rect(1,1,1,1)" v:tabSpace="42.5197"/>
			<v:textRect cx="5.66929" cy="156.906" width="11.34" height="11.3386"/>
			<rect x="0" y="151.236" width="11.3386" height="11.3386" class="st2"/>
			<text x="1.56" y="159.31" class="st3" v:langID="1033"><v:paragraph v:horizAlign="1"/><v:tabList/>Y<tspan dy="-0.287em"
						class="st6" v:baseFontSize="8">1</tspan></text>		</g>
		<g id="shape48-135" v:mID="48" v:groupContext="shape" transform="translate(249.949,-11.8386)">
			<title>Sheet.48</title>
			<desc>D1</desc>
			<v:textBlock v:margins="rect(1,1,1,1)" v:tabSpace="42.5197"/>
			<v:textRect cx="7.08661" cy="156.906" width="14.18" height="11.3386"/>
			<rect x="0" y="151.236" width="14.1732" height="11.3386" class="st2"/>
			<text x="1.97" y="159.31" class="st3" v:langID="1033"><v:paragraph v:horizAlign="1"/><v:tabList/>D1</text>		</g>
		<g id="shape50-138" v:mID="50" v:groupContext="shape" transform="translate(274.043,-23.1772)">
			<title>Sheet.50</title>
			<rect x="0" y="151.236" width="45.3543" height="11.3386" class="st5"/>
		</g>
		<g id="shape51-140" v:mID="51" v:groupContext="shape" transform="translate(447.957,128.059) rotate(90)">
			<title>Sheet.51</title>
			<path d="M0 162.57 L11.34 162.57" class="st1"/>
		</g>
		<g id="shape52-143" v:mID="52" v:groupContext="shape" transform="translate(459.295,128.059) rotate(90)">
			<title>Sheet.52</title>
			<path d="M0 162.57 L11.34 162.57" class="st1"/>
		</g>
		<g id="shape53-146" v:mID="53" v:groupContext="shape" transform="translate(470.634,128.059) rotate(90)">
			<title>Sheet.53</title>
			<path d="M0 162.57 L11.34 162.57" class="st1"/>
		</g>
		<g id="shape54-149" v:mID="54" v:groupContext="shape" transform="translate(274.043,-23.1772)">
			<title>Sheet.54</title>
			<desc>X3</desc>
			<v:textBlock v:margins="rect(1,1,1,1)" v:tabSpace="42.5197"/>
			<v:textRect cx="5.66929" cy="156.906" width="11.34" height="11.3386"/>
			<rect x="0" y="151.236" width="11.3386" height="11.3386" class="st2"/>
			<text x="1.56" y="159.31" class="st3" v:langID="1033"><v:paragraph v:horizAlign="1"/><v:tabList/>X<tspan dy="-0.287em"
						class="st6" v:baseFontSize="8">3</tspan></text>		</g>
		<g id="shape55-153" v:mID="55" v:groupContext="shape" transform="translate(285.382,-23.1772)">
			<title>Sheet.55</title>
			<desc>X2</desc>
			<v:textBlock v:margins="rect(1,1,1,1)" v:tabSpace="42.5197"/>
			<v:textRect cx="5.66929" cy="156.906" width="11.34" height="11.3386"/>
			<rect x="0" y="151.236" width="11.3386" height="11.3386" class="st2"/>
			<text x="1.56" y="159.31" class="st3" v:langID="1033"><v:paragraph v:horizAlign="1"/><v:tabList/>X<tspan dy="-0.287em"
						class="st6" v:baseFontSize="8">2</tspan></text>		</g>
		<g id="shape56-157" v:mID="56" v:groupContext="shape" transform="translate(296.72,-23.1772)">
			<title>Sheet.56</title>
			<desc>X1</desc>
			<v:textBlock v:margins="rect(1,1,1,1)" v:tabSpace="42.5197"/>
			<v:textRect cx="5.66929" cy="156.906" width="11.34" height="11.3386"/>
			<rect x="0" y="151.236" width="11.3386" height="11.3386" class="st2"/>
			<text x="1.56" y="159.31" class="st3" v:langID="1033"><v:paragraph v:horizAlign="1"/><v:tabList/>X<tspan dy="-0.287em"
						class="st6" v:baseFontSize="8">1</tspan></text>		</g>
		<g id="shape58-161" v:mID="58" v:groupContext="shape" transform="translate(319.398,-23.1772)">
			<title>Sheet.58</title>
			<desc>D0</desc>
			<v:textBlock v:margins="rect(1,1,1,1)" v:tabSpace="42.5197"/>
			<v:textRect cx="7.08661" cy="156.906" width="14.18" height="11.3386"/>
			<rect x="0" y="151.236" width="14.1732" height="11.3386" class="st2"/>
			<text x="1.97" y="159.31" class="st3" v:langID="1033"><v:paragraph v:horizAlign="1"/><v:tabList/>D0</text>		</g>
		<g id="shape39-164" v:mID="39" v:groupContext="shape" transform="translate(215.933,-11.8386)">
			<title>Sheet.39</title>
			<desc>Y2</desc>
			<v:textBlock v:margins="rect(1,1,1,1)" v:tabSpace="42.5197"/>
			<v:textRect cx="5.66929" cy="156.906" width="11.34" height="11.3386"/>
			<rect x="0" y="151.236" width="11.3386" height="11.3386" class="st2"/>
			<text x="1.56" y="159.31" class="st3" v:langID="1033"><v:paragraph v:horizAlign="1"/><v:tabList/>Y<tspan dy="-0.287em"
						class="st6" v:baseFontSize="8">2</tspan></text>		</g>
		<g id="shape45-168" v:mID="45" v:groupContext="shape" transform="translate(238.61,-11.8386)">
			<title>Sheet.45</title>
			<desc>Y0</desc>
			<v:textBlock v:margins="rect(1,1,1,1)" v:tabSpace="42.5197"/>
			<v:textRect cx="5.66929" cy="156.906" width="11.34" height="11.3386"/>
			<rect x="0" y="151.236" width="11.3386" height="11.3386" class="st2"/>
			<text x="1.56" y="159.31" class="st3" v:langID="1033"><v:paragraph v:horizAlign="1"/><v:tabList/>Y<tspan dy="-0.287em"
						class="st6" v:baseFontSize="8">0</tspan></text>		</g>
		<g id="shape47-172" v:mID="47" v:groupContext="shape" transform="translate(308.059,-23.1772)">
			<title>Sheet.47</title>
			<desc>X0</desc>
			<v:textBlock v:margins="rect(1,1,1,1)" v:tabSpace="42.5197"/>
			<v:textRect cx="5.66929" cy="156.906" width="11.34" height="11.3386"/>
			<rect x="0" y="151.236" width="11.3386" height="11.3386" class="st2"/>
			<text x="1.56" y="159.31" class="st3" v:langID="1033"><v:paragraph v:horizAlign="1"/><v:tabList/>X<tspan dy="-0.287em"
						class="st6" v:baseFontSize="8">0</tspan></text>		</g>
		<g id="shape49-176" v:mID="49" v:groupContext="shape" transform="translate(120.972,-17.5079)">
			<title>Signal 0</title>
			<path d="M0 162.57 L14.17 162.57" class="st1"/>
		</g>
		<g id="shape57-179" v:mID="57" v:groupContext="shape" transform="translate(283.392,78.0306) rotate(63.4349) scale(-1,1)">
			<title>Signal 1</title>
			<path d="M4.24 162.57 L4.6 162.57 L6.34 162.57" class="st7"/>
		</g>
		<g id="shape59-185" v:mID="59" v:groupContext="shape" transform="translate(120.972,-28.8465)">
			<title>Signal 0.59</title>
			<path d="M0 162.57 L87.87 162.57" class="st1"/>
		</g>
		<g id="shape60-188" v:mID="60" v:groupContext="shape" transform="translate(357.092,66.692) rotate(63.4349) scale(-1,1)">
			<title>Signal 1.60</title>
			<path d="M4.24 162.57 L4.6 162.57 L6.34 162.57" class="st7"/>
		</g>
		<g id="shape61-193" v:mID="61" v:groupContext="shape" transform="translate(120.972,-51.5236)">
			<title>Signal 0.61</title>
			<path d="M0 162.57 L11.34 162.57" class="st1"/>
		</g>
		<g id="shape62-196" v:mID="62" v:groupContext="shape" transform="translate(298.749,86.6949) rotate(66.8014) scale(-1,1)">
			<title>Signal 1.62</title>
			<path d="M4.24 162.57 L4.6 162.57 L43.18 162.57" class="st7"/>
		</g>
		<g id="shape63-201" v:mID="63" v:groupContext="shape" transform="translate(120.972,-85.5394)">
			<title>Signal 0.63</title>
			<path d="M0 162.57 L11.34 162.57" class="st1"/>
		</g>
		<g id="shape64-204" v:mID="64" v:groupContext="shape" transform="translate(312.396,92.3753) rotate(68.9625) scale(-1,1)">
			<title>Signal 1.64</title>
			<path d="M4.24 162.57 L4.6 162.57 L78.96 162.57" class="st7"/>
		</g>
		<g id="shape65-209" v:mID="65" v:groupContext="shape" transform="translate(120.972,-119.555)">
			<title>Signal 0.65</title>
			<path d="M0 162.57 L11.34 162.57" class="st1"/>
		</g>
		<g id="shape66-212" v:mID="66" v:groupContext="shape" transform="translate(324.547,94.5332) rotate(69.7751) scale(-1,1)">
			<title>Signal 1.66</title>
			<path d="M4.24 162.57 L4.6 162.57 L114.79 162.57" class="st7"/>
		</g>
		<g id="shape67-217" v:mID="67" v:groupContext="shape" transform="translate(120.972,-96.878)">
			<title>Line 0.5 (0).67</title>
			<path d="M0 162.57 L87.87 162.57" class="st1"/>
		</g>
		<g id="shape68-220" v:mID="68" v:groupContext="shape" transform="translate(387.989,86.2177) rotate(70.9065) scale(-1,1)">
			<title>Signal (3).68</title>
			<path d="M4.24 162.57 L4.6 162.57 L77.99 162.57" class="st7"/>
		</g>
		<g id="shape71-225" v:mID="71" v:groupContext="shape" transform="translate(120.972,-62.8622)">
			<title>Signal 0.67</title>
			<path d="M0 162.57 L87.87 162.57" class="st1"/>
		</g>
		<g id="shape72-228" v:mID="72" v:groupContext="shape" transform="translate(376.123,84.7178) rotate(70.3462) scale(-1,1)">
			<title>Signal 1.68</title>
			<path d="M4.24 162.57 L4.6 162.57 L42.14 162.57" class="st7"/>
		</g>
		<g id="shape73-233" v:mID="73" v:groupContext="shape" transform="translate(120.972,-40.185)">
			<title>Signal 0.73</title>
			<path d="M0 162.57 L155.91 162.57" class="st1"/>
		</g>
		<g id="shape74-236" v:mID="74" v:groupContext="shape" transform="translate(425.124,55.3534) rotate(63.4349) scale(-1,1)">
			<title>Signal 1.74</title>
			<path d="M4.24 162.57 L4.6 162.57 L6.34 162.57" class="st7"/>
		</g>
		<g id="shape75-241" v:mID="75" v:groupContext="shape" transform="translate(120.972,-130.894)">
			<title>Signal 0.75</title>
			<path d="M0 162.57 L87.87 162.57" class="st1"/>
		</g>
		<g id="shape76-244" v:mID="76" v:groupContext="shape" transform="translate(399.519,86.7742) rotate(71.1139) scale(-1,1)">
			<title>Signal 1.76</title>
			<path d="M4.24 162.57 L4.6 162.57 L113.85 162.57" class="st7"/>
		</g>
		<g id="shape77-249" v:mID="77" v:groupContext="shape" transform="translate(120.972,-74.2008)">
			<title>Signal 0.77</title>
			<path d="M0 162.57 L158.74 162.57" class="st1"/>
		</g>
		<g id="shape78-252" v:mID="78" v:groupContext="shape" transform="translate(447.371,83.3963) rotate(74.0546) scale(-1,1)">
			<title>Signal 1.78</title>
			<path d="M4.24 162.57 L4.6 162.57 L41.27 162.57" class="st7"/>
		</g>
		<g id="shape79-257" v:mID="79" v:groupContext="shape" transform="translate(120.972,-108.217)">
			<title>Signal 0.79</title>
			<path d="M0 162.57 L161.57 162.57" class="st1"/>
		</g>
		<g id="shape80-260" v:mID="80" v:groupContext="shape" transform="translate(459.375,85.7939) rotate(74.9315) scale(-1,1)">
			<title>Signal 1.80</title>
			<path d="M4.24 162.57 L4.6 162.57 L76.33 162.57" class="st7"/>
		</g>
		<g id="shape81-265" v:mID="81" v:groupContext="shape" transform="translate(120.972,-142.232)">
			<title>Signal 0.81</title>
			<path d="M0 162.57 L164.41 162.57" class="st1"/>
		</g>
		<g id="shape82-268" v:mID="82" v:groupContext="shape" transform="translate(470.95,86.6849) rotate(75.2564) scale(-1,1)">
			<title>Signal 1.82</title>
			<path d="M4.24 162.57 L4.6 162.57 L111.38 162.57" class="st7"/>
		</g>
		<g id="shape83-273" v:mID="83" v:groupContext="shape" transform="translate(333.571,-0.5)">
			<title>Brace 1</title>
			<desc>Registers</desc>
			<v:textBlock v:margins="rect(1,1,1,1)" v:tabSpace="42.5197"/>
			<v:textRect cx="30.3463" cy="145.567" width="38.02" height="11.3386"/>
			<path d="M0 128.56 L5.67 128.56 L8.5 131.39 L8.5 142.73 L11.34 145.57 L8.5 148.4 L8.5 159.74 L5.67 162.57 L0 162.57"
					class="st1"/>
			<text x="13.45" y="147.97" class="st3" v:langID="2057"><v:paragraph v:horizAlign="1"/><v:tabList/>Registers</text>		</g>
		<g id="shape69-277" v:mID="69" v:groupContext="shape" transform="translate(0.5,-61.4449)">
			<title>Sheet.69</title>
			<desc>A is a packed array of 3-element structures. Each element is ...</desc>
			<v:textBlock v:margins="rect(1,2,1,0)" v:tabSpace="42.5197"/>
			<v:textRect cx="44.6457" cy="144.15" width="89.3" height="36.8504"/>
			<rect x="0" y="125.724" width="89.2913" height="36.8504" class="st2"/>
			<text x="0" y="132.15" class="st3" v:langID="2057"><v:paragraph/><v:tabList/>A is a packed  array of <tspan x="0"
						dy="1.2em" class="st9">3</tspan>-element structures.<v:newlineChar/><tspan x="0" dy="1.2em" class="st9">Each element is a </tspan>16-bit <tspan
						x="0" dy="1.2em" class="st9">halfword</tspan>.</text>		</g>
	</g>
</svg>
