<?xml version="1.0" encoding="UTF-8" standalone="no"?>
<!DOCTYPE svg PUBLIC "-//W3C//DTD SVG 1.0//EN" "http://www.w3.org/TR/2001/REC-SVG-20010904/DTD/svg10.dtd">
<!-- Generated by Microsoft Visio 11.0, SVG Export, v1.0 A64.sri_operation_shift_by_3.svg Page-1 -->
<svg xmlns="http://www.w3.org/2000/svg" xmlns:v="http://schemas.microsoft.com/visio/2003/SVGExtensions/" width="4.73159in"
xmlns:xlink="http://www.w3.org/1999/xlink" 
		height="1.8116in" viewBox="0 0 340.674 130.435" xml:space="preserve" color-interpolation-filters="sRGB" class="st9">
	<v:documentProperties v:langID="1033" v:metric="true" v:viewMarkup="false"/>

	<style type="text/css">
	<![CDATA[
		.st1 {marker-end:url(#mrkr4-6);stroke:#000000;stroke-linecap:butt;stroke-width:0.5}
		.st2 {fill:#000000;fill-opacity:1;stroke:#000000;stroke-opacity:1;stroke-width:0.21739130434783}
		.st3 {fill:none;stroke:none;stroke-linecap:butt;stroke-width:0.5}
		.st4 {fill:#000000;font-family:Arial;font-size:0.75em}
		.st5 {fill:#ffffff;stroke:none;stroke-linecap:round;stroke-linejoin:round;stroke-width:0.0169691}
		.st6 {fill:#000000;font-family:Arial;font-size:0.666664em}
		.st7 {stroke:#000000;stroke-linecap:butt;stroke-width:0.8}
		.st8 {stroke:#000000;stroke-dasharray:0.25,1;stroke-linecap:butt;stroke-width:0.25}
		.st9 {fill:none;fill-rule:evenodd;font-size:12;overflow:visible;stroke-linecap:square;stroke-miterlimit:3}
		.st10 {fill:#ffffff;stroke:none;stroke-linecap:butt;stroke-width:0.5}
		.st11 {stroke:#000000;stroke-linecap:butt;stroke-width:0.5}
		.st12 {fill:#ffffff;visibility:hidden}
	]]>
	</style>

	<defs id="Masters">
		<symbol id="master10" v:mID="10" class="st9">
			<title>Disconnect</title>
			<g id="group64-77" v:mID="64" v:groupContext="group">
				<title>Disconnect.47</title>
				<g id="master-shape65-78" v:mID="65" v:groupContext="shape" transform="translate(0.566929,0)">
					<title>Sheet.65</title>
					<rect x="0" y="124.766" width="1.88976" height="5.66929" class="st10"/>
				</g>
				<g id="master-shape66-80" v:mID="66" v:groupContext="shape" transform="translate(131.089,146.142) rotate(99.4623)">
					<title>Sheet.66</title>
					<path d="M0 130.02 C0.15 130.23 0.72 130.4 1.15 130.43 C1.58 130.46 1.86 130.36 2.34 130.12 C2.63 129.98 2.98
								 129.79 3.29 129.67 C4.56 129.17 5.03 129.72 5.75 130.02" class="st11"/>
				</g>
				<g id="master-shape67-83" v:mID="67" v:groupContext="shape" transform="translate(129.2,146.142) rotate(99.4623)">
					<title>Sheet.67</title>
					<path d="M0 130.02 C0.15 130.23 0.72 130.4 1.15 130.43 C1.58 130.46 1.86 130.36 2.34 130.12 C2.63 129.98 2.98
								 129.79 3.29 129.67 C4.56 129.17 5.03 129.72 5.75 130.02" class="st11"/>
				</g>
			</g>
		</symbol>
	</defs>
	<defs id="Markers">
		<g id="lend4">
			<path d="M 2 1 L -0 0 L 2 -1 L 2 1 " style="stroke:none"/>
		</g>
		<marker id="mrkr4-6" class="st2" v:arrowType="4" v:arrowSize="1" v:setback="9.2" refX="-9.2" orient="auto"
				markerUnits="strokeWidth">
			<use xlink:href="#lend4" transform="scale(-4.6,-4.6) "/>
		</marker>
	</defs>
	<g v:mID="0" v:index="1" v:groupContext="foregroundPage">
		<title>Page-1</title>
		<v:pageProperties v:drawingScale="0.0393701" v:pageScale="0.0393701" v:drawingUnits="24" v:shadowOffsetX="0"
				v:shadowOffsetY="0" v:shadowType="1" v:shadowScale="0"/>
		<g id="shape39-1" v:mID="39" v:groupContext="shape" transform="translate(252.701,-88.5551) rotate(30.6689)">
			<title>Signal 2.93</title>
			<path d="M0 130.44 L66.26 130.44" class="st1"/>
		</g>
		<g id="shape42-7" v:mID="42" v:groupContext="shape" transform="translate(6.12795,114.344) rotate(-90)">
			<title>Signal 2.42</title>
			<path d="M0 130.44 L35.09 130.44" class="st1"/>
		</g>
		<g id="shape5-12" v:mID="5" v:groupContext="shape" transform="translate(28.8051,114.344) rotate(-90)">
			<title>Signal 2.5</title>
			<path d="M0 130.44 L35.09 130.44" class="st1"/>
		</g>
		<g id="shape25-17" v:mID="25" v:groupContext="shape" transform="translate(210.052,-87.7816) rotate(31.3287)">
			<title>Signal 2.25</title>
			<path d="M0 130.44 L65.09 130.44" class="st1"/>
		</g>
		<g id="shape38-22" v:mID="38" v:groupContext="shape" transform="translate(275.378,-88.5551) rotate(30.6689)">
			<title>Signal 2.38</title>
			<path d="M0 130.44 L66.26 130.44" class="st1"/>
		</g>
		<g id="shape24-27" v:mID="24" v:groupContext="shape" transform="translate(232.602,-87.8584) rotate(31.2637)">
			<title>Signal 2.24</title>
			<path d="M0 130.44 L65.04 130.44" class="st1"/>
		</g>
		<g id="shape30-32" v:mID="30" v:groupContext="shape" transform="translate(187.374,-87.7816) rotate(31.3287)">
			<title>Signal 2.30</title>
			<path d="M0 130.44 L65.09 130.44" class="st1"/>
		</g>
		<g id="shape8-37" v:mID="8" v:groupContext="shape" transform="translate(-15.6319,114.344) rotate(-90)">
			<title>Signal 2.8</title>
			<path d="M0 130.44 L35.09 130.44" class="st1"/>
		</g>
		<g id="shape44-42" v:mID="44" v:groupContext="shape" transform="translate(6.16929,-57.1142)">
			<title>Sheet.44</title>
			<desc>Vd.B[7] after operation</desc>
			<v:textBlock v:margins="rect(1,1,1,1)" v:tabSpace="42.5197"/>
			<v:textRect cx="49.6063" cy="125.435" width="99.22" height="10"/>
			<rect x="0" y="120.435" width="99.2126" height="10" class="st3"/>
			<text x="4.58" y="128.14" class="st4" v:langID="2057"><v:paragraph v:horizAlign="1"/><v:tabList/>Vd.B[7] after operation</text>		</g>
		<g id="shape47-45" v:mID="47" v:groupContext="shape" transform="translate(0.5,-3.25591)">
			<title>Sheet.47</title>
			<desc>Vd.B[7] before operation</desc>
			<v:textBlock v:margins="rect(1,1,1,1)" v:tabSpace="42.5197"/>
			<v:textRect cx="50.565" cy="125.435" width="101.13" height="10"/>
			<rect x="0" y="120.435" width="101.13" height="10" class="st3"/>
			<text x="1.78" y="128.14" class="st4" v:langID="2057"><v:paragraph v:horizAlign="1"/><v:tabList/>Vd.B[7] before operation</text>		</g>
		<g id="shape48-48" v:mID="48" v:groupContext="shape" transform="translate(66.6142,-108.846)">
			<title>Sheet.48</title>
			<desc>Vn.B[7]</desc>
			<v:textBlock v:margins="rect(1,1,1,1)" v:tabSpace="42.5197"/>
			<v:textRect cx="17.9665" cy="125.435" width="35.94" height="10"/>
			<rect x="0" y="120.435" width="35.9331" height="10" class="st3"/>
			<text x="3.21" y="128.14" class="st4" v:langID="2057"><v:paragraph v:horizAlign="1"/><v:tabList/>Vn.B[7]</text>		</g>
		<g id="shape54-51" v:mID="54" v:groupContext="shape" transform="translate(102.547,-107.508)">
			<title>Sheet.54</title>
			<rect x="0" y="119.096" width="22.6772" height="11.3386" class="st5"/>
		</g>
		<g id="shape55-53" v:mID="55" v:groupContext="shape" transform="translate(102.547,-118.846)">
			<title>Sheet.55</title>
			<desc>63</desc>
			<v:textBlock v:margins="rect(0,0,0,0)" v:tabSpace="42.5197"/>
			<v:textRect cx="5.66929" cy="124.766" width="11.34" height="11.3386"/>
			<text x="1.22" y="127.17" class="st6" v:langID="2057"><v:paragraph v:horizAlign="1"/><v:tabList/>63</text>		</g>
		<g id="shape56-55" v:mID="56" v:groupContext="shape" transform="translate(272.626,-118.846)">
			<title>Sheet.56</title>
			<desc>56</desc>
			<v:textBlock v:margins="rect(0,0,0,0)" v:tabSpace="42.5197"/>
			<v:textRect cx="5.66929" cy="124.766" width="11.34" height="11.3386"/>
			<text x="1.22" y="127.17" class="st6" v:langID="2057"><v:paragraph v:horizAlign="1"/><v:tabList/>56</text>		</g>
		<g id="shape57-57" v:mID="57" v:groupContext="shape" transform="translate(283.965,-118.846)">
			<title>Sheet.57</title>
			<desc>55</desc>
			<v:textBlock v:margins="rect(0,0,0,0)" v:tabSpace="42.5197"/>
			<v:textRect cx="5.66929" cy="124.766" width="11.34" height="11.3386"/>
			<text x="1.22" y="127.17" class="st6" v:langID="2057"><v:paragraph v:horizAlign="1"/><v:tabList/>55</text>		</g>
		<g id="shape58-59" v:mID="58" v:groupContext="shape" transform="translate(125.224,-107.508)">
			<title>Sheet.58</title>
			<rect x="0" y="119.096" width="215.433" height="11.3386" class="st5"/>
		</g>
		<g id="shape59-61" v:mID="59" v:groupContext="shape" transform="translate(125.224,-107.508)">
			<title>Sheet.59</title>
			<path d="M0 119.1 L0 130.44" class="st7"/>
		</g>
		<g id="shape60-64" v:mID="60" v:groupContext="shape" transform="translate(193.256,-107.508)">
			<title>Sheet.60</title>
			<path d="M0 119.1 L0 130.44" class="st7"/>
		</g>
		<g id="shape61-67" v:mID="61" v:groupContext="shape" transform="translate(468.258,0.25) rotate(90)">
			<title>Signal 0.121</title>
			<path d="M0 130.44 L11.34 130.44" class="st8"/>
		</g>
		<g id="shape62-70" v:mID="62" v:groupContext="shape" transform="translate(414.4,0.25) rotate(90)">
			<title>Signal 0.123</title>
			<path d="M0 130.44 L11.34 130.44" class="st8"/>
		</g>
		<g id="shape63-73" v:mID="63" v:groupContext="shape" transform="translate(232.982,0.25) rotate(90)">
			<title>Signal 0.125</title>
			<path d="M0 130.44 L11.34 130.44" class="st8"/>
		</g>
		<use id="shape64-76" v:mID="64" xlink:href="#master10" transform="translate(308.059,-116.012)">
			<title>Disconnect.47</title>
		</use>
		<g id="group68-86" transform="translate(308.059,-104.673)" v:mID="68" v:groupContext="group">
			<title>Disconnect.51</title>
			<g id="shape69-87" v:mID="69" v:groupContext="shape" transform="translate(0.566929,0)">
				<title>Sheet.69</title>
				<rect x="0" y="124.766" width="1.88976" height="5.66929" class="st10"/>
			</g>
			<g id="shape70-89" v:mID="70" v:groupContext="shape" transform="translate(131.089,146.142) rotate(99.4623)">
				<title>Sheet.70</title>
				<path d="M0 130.02 C0.15 130.23 0.72 130.4 1.15 130.43 C1.58 130.46 1.86 130.36 2.34 130.12 C2.63 129.98 2.98 129.79
							 3.29 129.67 C4.56 129.17 5.03 129.72 5.75 130.02" class="st11"/>
			</g>
			<g id="shape71-92" v:mID="71" v:groupContext="shape" transform="translate(129.2,146.142) rotate(99.4623)">
				<title>Sheet.71</title>
				<path d="M0 130.02 C0.15 130.23 0.72 130.4 1.15 130.43 C1.58 130.46 1.86 130.36 2.34 130.12 C2.63 129.98 2.98 129.79
							 3.29 129.67 C4.56 129.17 5.03 129.72 5.75 130.02" class="st11"/>
			</g>
		</g>
		<g id="shape72-95" v:mID="72" v:groupContext="shape" transform="translate(102.547,-107.508)">
			<title>Sheet.72</title>
			<rect x="0" y="119.096" width="235.276" height="11.3386" class="st12"/>
			<rect x="0" y="119.096" width="235.276" height="11.3386" class="st7"/>
		</g>
		<g id="shape73-98" v:mID="73" v:groupContext="shape" transform="translate(147.902,-107.508)">
			<title>Sheet.73</title>
			<path d="M0 119.1 L0 130.44" class="st7"/>
		</g>
		<g id="shape74-101" v:mID="74" v:groupContext="shape" transform="translate(170.579,-107.508)">
			<title>Sheet.74</title>
			<path d="M0 119.1 L0 130.44" class="st7"/>
		</g>
		<g id="shape75-104" v:mID="75" v:groupContext="shape" transform="translate(329.319,-118.846)">
			<title>Sheet.75</title>
			<desc>0</desc>
			<v:textBlock v:margins="rect(0,0,0,0)" v:tabSpace="42.5197"/>
			<v:textRect cx="5.66929" cy="124.766" width="11.34" height="11.3386"/>
			<text x="3.44" y="127.17" class="st6" v:langID="2057"><v:paragraph v:horizAlign="1"/><v:tabList/>0</text>		</g>
		<g id="shape76-106" v:mID="76" v:groupContext="shape" transform="translate(215.933,-107.508)">
			<title>Sheet.76</title>
			<path d="M0 119.1 L0 130.44" class="st7"/>
		</g>
		<g id="shape77-109" v:mID="77" v:groupContext="shape" transform="translate(238.61,-107.508)">
			<title>Sheet.77</title>
			<path d="M0 119.1 L0 130.44" class="st7"/>
		</g>
		<g id="shape78-112" v:mID="78" v:groupContext="shape" transform="translate(261.287,-107.508)">
			<title>Sheet.78</title>
			<path d="M0 119.1 L0 130.44" class="st7"/>
		</g>
		<g id="shape79-115" v:mID="79" v:groupContext="shape" transform="translate(283.965,-107.508)">
			<title>Sheet.79</title>
			<path d="M0 119.1 L0 130.44" class="st7"/>
		</g>
		<g id="shape80-118" v:mID="80" v:groupContext="shape" transform="translate(102.547,-56.4843)">
			<title>Sheet.80</title>
			<rect x="0" y="119.096" width="22.6772" height="11.3386" class="st5"/>
		</g>
		<g id="shape81-120" v:mID="81" v:groupContext="shape" transform="translate(102.547,-67.8228)">
			<title>Sheet.81</title>
			<desc>63</desc>
			<v:textBlock v:margins="rect(0,0,0,0)" v:tabSpace="42.5197"/>
			<v:textRect cx="5.66929" cy="124.766" width="11.34" height="11.3386"/>
			<text x="1.22" y="127.17" class="st6" v:langID="2057"><v:paragraph v:horizAlign="1"/><v:tabList/>63</text>		</g>
		<g id="shape82-122" v:mID="82" v:groupContext="shape" transform="translate(272.626,-67.8228)">
			<title>Sheet.82</title>
			<desc>56</desc>
			<v:textBlock v:margins="rect(0,0,0,0)" v:tabSpace="42.5197"/>
			<v:textRect cx="5.66929" cy="124.766" width="11.34" height="11.3386"/>
			<text x="1.22" y="127.17" class="st6" v:langID="2057"><v:paragraph v:horizAlign="1"/><v:tabList/>56</text>		</g>
		<g id="shape83-124" v:mID="83" v:groupContext="shape" transform="translate(283.965,-67.8228)">
			<title>Sheet.83</title>
			<desc>55</desc>
			<v:textBlock v:margins="rect(0,0,0,0)" v:tabSpace="42.5197"/>
			<v:textRect cx="5.66929" cy="124.766" width="11.34" height="11.3386"/>
			<text x="1.22" y="127.17" class="st6" v:langID="2057"><v:paragraph v:horizAlign="1"/><v:tabList/>55</text>		</g>
		<g id="shape84-126" v:mID="84" v:groupContext="shape" transform="translate(125.224,-56.4843)">
			<title>Sheet.84</title>
			<rect x="0" y="119.096" width="215.433" height="11.3386" class="st5"/>
		</g>
		<g id="shape85-128" v:mID="85" v:groupContext="shape" transform="translate(125.224,-56.4843)">
			<title>Sheet.85</title>
			<path d="M0 119.1 L0 130.44" class="st7"/>
		</g>
		<g id="shape86-131" v:mID="86" v:groupContext="shape" transform="translate(193.256,-56.4843)">
			<title>Sheet.86</title>
			<path d="M0 119.1 L0 130.44" class="st7"/>
		</g>
		<g id="shape87-134" v:mID="87" v:groupContext="shape" transform="translate(468.258,51.2736) rotate(90)">
			<title>Signal 0.80</title>
			<path d="M0 130.44 L11.34 130.44" class="st8"/>
		</g>
		<g id="shape88-137" v:mID="88" v:groupContext="shape" transform="translate(414.4,51.2736) rotate(90)">
			<title>Signal 0.81</title>
			<path d="M0 130.44 L11.34 130.44" class="st8"/>
		</g>
		<g id="shape89-140" v:mID="89" v:groupContext="shape" transform="translate(232.982,51.2736) rotate(90)">
			<title>Signal 0.82</title>
			<path d="M0 130.44 L11.34 130.44" class="st8"/>
		</g>
		<use id="shape90-143" v:mID="90" xlink:href="#master10" transform="translate(308.059,-64.9882)">
			<title>Disconnect.83</title>
		</use>
		<g id="group94-144" transform="translate(308.059,-53.6496)" v:mID="94" v:groupContext="group">
			<title>Disconnect.87</title>
			<g id="master-shape95-145" v:mID="95" v:groupContext="shape" transform="translate(0.566929,0)">
				<title>Sheet.95</title>
				<rect x="0" y="124.766" width="1.88976" height="5.66929" class="st10"/>
			</g>
			<g id="master-shape96-147" v:mID="96" v:groupContext="shape" transform="translate(131.089,146.142) rotate(99.4623)">
				<title>Sheet.96</title>
				<path d="M0 130.02 C0.15 130.23 0.72 130.4 1.15 130.43 C1.58 130.46 1.86 130.36 2.34 130.12 C2.63 129.98 2.98 129.79
							 3.29 129.67 C4.56 129.17 5.03 129.72 5.75 130.02" class="st11"/>
			</g>
			<g id="master-shape97-150" v:mID="97" v:groupContext="shape" transform="translate(129.2,146.142) rotate(99.4623)">
				<title>Sheet.97</title>
				<path d="M0 130.02 C0.15 130.23 0.72 130.4 1.15 130.43 C1.58 130.46 1.86 130.36 2.34 130.12 C2.63 129.98 2.98 129.79
							 3.29 129.67 C4.56 129.17 5.03 129.72 5.75 130.02" class="st11"/>
			</g>
		</g>
		<g id="master-shape98-153" v:mID="98" v:groupContext="shape" transform="translate(102.547,-56.4843)">
			<title>Sheet.98</title>
			<rect x="0" y="119.096" width="235.276" height="11.3386" class="st12"/>
			<rect x="0" y="119.096" width="235.276" height="11.3386" class="st7"/>
		</g>
		<g id="master-shape99-156" v:mID="99" v:groupContext="shape" transform="translate(147.902,-56.4843)">
			<title>Sheet.99</title>
			<path d="M0 119.1 L0 130.44" class="st7"/>
		</g>
		<g id="master-shape100-159" v:mID="100" v:groupContext="shape" transform="translate(170.579,-56.4843)">
			<title>Sheet.100</title>
			<path d="M0 119.1 L0 130.44" class="st7"/>
		</g>
		<g id="master-shape101-162" v:mID="101" v:groupContext="shape" transform="translate(329.319,-67.8228)">
			<title>Sheet.101</title>
			<desc>0</desc>
			<v:textBlock v:margins="rect(0,0,0,0)" v:tabSpace="42.5197"/>
			<v:textRect cx="5.66929" cy="124.766" width="11.34" height="11.3386"/>
			<text x="3.44" y="127.17" class="st6" v:langID="2057"><v:paragraph v:horizAlign="1"/><v:tabList/>0</text>		</g>
		<g id="master-shape102-164" v:mID="102" v:groupContext="shape" transform="translate(215.933,-56.4843)">
			<title>Sheet.102</title>
			<path d="M0 119.1 L0 130.44" class="st7"/>
		</g>
		<g id="master-shape103-167" v:mID="103" v:groupContext="shape" transform="translate(238.61,-56.4843)">
			<title>Sheet.103</title>
			<path d="M0 119.1 L0 130.44" class="st7"/>
		</g>
		<g id="master-shape104-170" v:mID="104" v:groupContext="shape" transform="translate(261.287,-56.4843)">
			<title>Sheet.104</title>
			<path d="M0 119.1 L0 130.44" class="st7"/>
		</g>
		<g id="master-shape105-173" v:mID="105" v:groupContext="shape" transform="translate(283.965,-56.4843)">
			<title>Sheet.105</title>
			<path d="M0 119.1 L0 130.44" class="st7"/>
		</g>
		<g id="master-shape106-176" v:mID="106" v:groupContext="shape" transform="translate(102.547,-3.33465)">
			<title>Sheet.106</title>
			<rect x="0" y="119.096" width="22.6772" height="11.3386" class="st5"/>
		</g>
		<g id="master-shape107-178" v:mID="107" v:groupContext="shape" transform="translate(102.547,-14.6732)">
			<title>Sheet.107</title>
			<desc>63</desc>
			<v:textBlock v:margins="rect(0,0,0,0)" v:tabSpace="42.5197"/>
			<v:textRect cx="5.66929" cy="124.766" width="11.34" height="11.3386"/>
			<text x="1.22" y="127.17" class="st6" v:langID="2057"><v:paragraph v:horizAlign="1"/><v:tabList/>63</text>		</g>
		<g id="master-shape108-180" v:mID="108" v:groupContext="shape" transform="translate(272.626,-14.6732)">
			<title>Sheet.108</title>
			<desc>56</desc>
			<v:textBlock v:margins="rect(0,0,0,0)" v:tabSpace="42.5197"/>
			<v:textRect cx="5.66929" cy="124.766" width="11.34" height="11.3386"/>
			<text x="1.22" y="127.17" class="st6" v:langID="2057"><v:paragraph v:horizAlign="1"/><v:tabList/>56</text>		</g>
		<g id="master-shape109-182" v:mID="109" v:groupContext="shape" transform="translate(283.965,-14.6732)">
			<title>Sheet.109</title>
			<desc>55</desc>
			<v:textBlock v:margins="rect(0,0,0,0)" v:tabSpace="42.5197"/>
			<v:textRect cx="5.66929" cy="124.766" width="11.34" height="11.3386"/>
			<text x="1.22" y="127.17" class="st6" v:langID="2057"><v:paragraph v:horizAlign="1"/><v:tabList/>55</text>		</g>
		<g id="master-shape110-184" v:mID="110" v:groupContext="shape" transform="translate(125.224,-3.33465)">
			<title>Sheet.110</title>
			<rect x="0" y="119.096" width="215.433" height="11.3386" class="st5"/>
		</g>
		<g id="master-shape111-186" v:mID="111" v:groupContext="shape" transform="translate(125.224,-3.33465)">
			<title>Sheet.111</title>
			<path d="M0 119.1 L0 130.44" class="st7"/>
		</g>
		<g id="master-shape112-189" v:mID="112" v:groupContext="shape" transform="translate(193.256,-3.33465)">
			<title>Sheet.112</title>
			<path d="M0 119.1 L0 130.44" class="st7"/>
		</g>
		<g id="master-shape113-192" v:mID="113" v:groupContext="shape" transform="translate(468.258,104.423) rotate(90)">
			<title>Signal 0.106</title>
			<path d="M0 130.44 L11.34 130.44" class="st8"/>
		</g>
		<g id="master-shape114-195" v:mID="114" v:groupContext="shape" transform="translate(414.4,104.423) rotate(90)">
			<title>Signal 0.107</title>
			<path d="M0 130.44 L11.34 130.44" class="st8"/>
		</g>
		<g id="master-shape115-198" v:mID="115" v:groupContext="shape" transform="translate(232.982,104.423) rotate(90)">
			<title>Signal 0.108</title>
			<path d="M0 130.44 L11.34 130.44" class="st8"/>
		</g>
		<use id="shape116-201" v:mID="116" xlink:href="#master10" transform="translate(308.059,-11.8386)">
			<title>Disconnect.109</title>
		</use>
		<g id="group120-202" transform="translate(308.059,-0.5)" v:mID="120" v:groupContext="group">
			<title>Disconnect.113</title>
			<g id="master-shape121-203" v:mID="121" v:groupContext="shape" transform="translate(0.566929,0)">
				<title>Sheet.121</title>
				<rect x="0" y="124.766" width="1.88976" height="5.66929" class="st10"/>
			</g>
			<g id="master-shape122-205" v:mID="122" v:groupContext="shape" transform="translate(131.089,146.142) rotate(99.4623)">
				<title>Sheet.122</title>
				<path d="M0 130.02 C0.15 130.23 0.72 130.4 1.15 130.43 C1.58 130.46 1.86 130.36 2.34 130.12 C2.63 129.98 2.98 129.79
							 3.29 129.67 C4.56 129.17 5.03 129.72 5.75 130.02" class="st11"/>
			</g>
			<g id="master-shape123-208" v:mID="123" v:groupContext="shape" transform="translate(129.2,146.142) rotate(99.4623)">
				<title>Sheet.123</title>
				<path d="M0 130.02 C0.15 130.23 0.72 130.4 1.15 130.43 C1.58 130.46 1.86 130.36 2.34 130.12 C2.63 129.98 2.98 129.79
							 3.29 129.67 C4.56 129.17 5.03 129.72 5.75 130.02" class="st11"/>
			</g>
		</g>
		<g id="master-shape124-211" v:mID="124" v:groupContext="shape" transform="translate(102.547,-3.33465)">
			<title>Sheet.124</title>
			<rect x="0" y="119.096" width="235.276" height="11.3386" class="st12"/>
			<rect x="0" y="119.096" width="235.276" height="11.3386" class="st7"/>
		</g>
		<g id="master-shape125-214" v:mID="125" v:groupContext="shape" transform="translate(147.902,-3.33465)">
			<title>Sheet.125</title>
			<path d="M0 119.1 L0 130.44" class="st7"/>
		</g>
		<g id="master-shape126-217" v:mID="126" v:groupContext="shape" transform="translate(170.579,-3.33465)">
			<title>Sheet.126</title>
			<path d="M0 119.1 L0 130.44" class="st7"/>
		</g>
		<g id="master-shape127-220" v:mID="127" v:groupContext="shape" transform="translate(329.319,-14.6732)">
			<title>Sheet.127</title>
			<desc>0</desc>
			<v:textBlock v:margins="rect(0,0,0,0)" v:tabSpace="42.5197"/>
			<v:textRect cx="5.66929" cy="124.766" width="11.34" height="11.3386"/>
			<text x="3.44" y="127.17" class="st6" v:langID="2057"><v:paragraph v:horizAlign="1"/><v:tabList/>0</text>		</g>
		<g id="master-shape128-222" v:mID="128" v:groupContext="shape" transform="translate(215.933,-3.33465)">
			<title>Sheet.128</title>
			<path d="M0 119.1 L0 130.44" class="st7"/>
		</g>
		<g id="master-shape129-225" v:mID="129" v:groupContext="shape" transform="translate(238.61,-3.33465)">
			<title>Sheet.129</title>
			<path d="M0 119.1 L0 130.44" class="st7"/>
		</g>
		<g id="master-shape130-228" v:mID="130" v:groupContext="shape" transform="translate(261.287,-3.33465)">
			<title>Sheet.130</title>
			<path d="M0 119.1 L0 130.44" class="st7"/>
		</g>
		<g id="master-shape131-231" v:mID="131" v:groupContext="shape" transform="translate(283.965,-3.33465)">
			<title>Sheet.131</title>
			<path d="M0 119.1 L0 130.44" class="st7"/>
		</g>
	</g>
</svg>
