<?xml version="1.0" encoding="UTF-8" standalone="no"?>
<!DOCTYPE svg PUBLIC "-//W3C//DTD SVG 1.0//EN" "http://www.w3.org/TR/2001/REC-SVG-20010904/DTD/svg10.dtd">
<!-- Generated by Microsoft Visio 11.0, SVG Export, v1.0 A64.trn1_trn2_halfword_operation.svg Page-1 -->
<svg xmlns="http://www.w3.org/2000/svg" xmlns:v="http://schemas.microsoft.com/visio/2003/SVGExtensions/" width="4.30939in"
xmlns:xlink="http://www.w3.org/1999/xlink" 
		height="1.82908in" viewBox="0 0 310.276 131.694" xml:space="preserve" color-interpolation-filters="sRGB" class="st12">
	<v:documentProperties v:langID="1033" v:metric="true" v:viewMarkup="false"/>

	<style type="text/css">
	<![CDATA[
		.st1 {fill:#ffffff;stroke:none;stroke-linecap:round;stroke-linejoin:round;stroke-width:0.0169691}
		.st2 {visibility:visible}
		.st3 {fill:#d9d9d9;stroke:none;stroke-linecap:round;stroke-linejoin:round;stroke-width:0.0169691}
		.st4 {stroke:#000000;stroke-linecap:butt;stroke-width:0.5}
		.st5 {fill:#ffffff;visibility:hidden}
		.st6 {stroke:#000000;stroke-linecap:butt;stroke-width:0.8}
		.st7 {marker-end:url(#mrkr4-44);stroke:#000000;stroke-linecap:butt;stroke-width:0.5}
		.st8 {fill:#000000;fill-opacity:1;stroke:#000000;stroke-opacity:1;stroke-width:0.21739130434783}
		.st9 {fill:none;stroke:none;stroke-linecap:butt;stroke-width:0.5}
		.st10 {fill:#000000;font-family:Arial;font-size:0.666664em}
		.st11 {marker-start:url(#mrkr4-96);stroke:#000000;stroke-linecap:butt;stroke-width:0.5}
		.st12 {fill:none;fill-rule:evenodd;font-size:12;overflow:visible;stroke-linecap:square;stroke-miterlimit:3}
	]]>
	</style>

	<defs id="Markers">
		<g id="lend4">
			<path d="M 2 1 L -0 0 L 2 -1 L 2 1 " style="stroke:none"/>
		</g>
		<marker id="mrkr4-44" class="st8" v:arrowType="4" v:arrowSize="1" v:setback="9.2" refX="-9.2" orient="auto"
				markerUnits="strokeWidth">
			<use xlink:href="#lend4" transform="scale(-4.6,-4.6) "/>
		</marker>
		<marker id="mrkr4-96" class="st8" v:arrowType="4" v:arrowSize="1" v:setback="8.48" refX="8.48" orient="auto"
				markerUnits="strokeWidth">
			<use xlink:href="#lend4" transform="scale(4.6) "/>
		</marker>
	</defs>
	<g v:mID="0" v:index="1" v:groupContext="foregroundPage">
		<title>Page-1</title>
		<v:pageProperties v:drawingScale="0.0393701" v:pageScale="0.0393701" v:drawingUnits="24" v:shadowOffsetX="0"
				v:shadowOffsetY="0" v:shadowType="1" v:shadowScale="0"/>
		<g id="shape119-1" v:mID="119" v:groupContext="shape" transform="translate(281.13,-46.1543)">
			<title>Sheet.119</title>
			<rect x="0" y="120.355" width="28.3465" height="11.3386" class="st1"/>
		</g>
		<g id="shape87-3" v:mID="87" v:groupContext="shape" transform="translate(252.783,-46.1543)">
			<title>Sheet.87</title>
			<rect x="0" y="120.355" width="28.3465" height="11.3386" class="st1"/>
		</g>
		<g id="shape86-5" v:mID="86" v:groupContext="shape" transform="translate(224.437,-46.1543)">
			<title>Sheet.86</title>
			<rect x="0" y="120.355" width="28.3465" height="11.3386" class="st1"/>
		</g>
		<g id="shape85-7" v:mID="85" v:groupContext="shape" transform="translate(196.091,-46.1543)">
			<title>Sheet.85</title>
			<rect x="0" y="120.355" width="28.3465" height="11.3386" class="st1"/>
		</g>
		<g id="shape47-9" v:mID="47" v:groupContext="shape" transform="translate(20.3425,-46.1543)">
			<title>Sheet.47</title>
			<rect x="0" y="120.355" width="28.3465" height="11.3386" class="st1"/>
		</g>
		<g id="shape48-11" v:mID="48" v:groupContext="shape" transform="translate(48.689,-46.1543)">
			<title>Sheet.48</title>
			<rect x="0" y="120.355" width="28.3465" height="11.3386" class="st1"/>
		</g>
		<g id="group84-13" transform="translate(77.0354,-46.1543)" v:mID="84" v:groupContext="group">
			<title>Sheet.84</title>
			<g id="shape49-14" v:mID="49" v:groupContext="shape">
				<title>Sheet.49</title>
				<rect x="0" y="120.355" width="28.3465" height="11.3386" class="st1"/>
			</g>
		</g>
		<g id="shape50-16" v:mID="50" v:groupContext="shape" transform="translate(105.382,-46.1543)">
			<title>Sheet.50</title>
			<rect x="0" y="120.355" width="28.3465" height="11.3386" class="st1"/>
		</g>
		<g id="shape45-18" v:mID="45" v:groupContext="shape" transform="translate(20.3425,-0.8)">
			<title>Sheet.45</title>
			<g id="shadow45-19" v:groupContext="shadow" v:shadowOffsetX="0" v:shadowOffsetY="0" transform="matrix(1,0,0,1,0,0)"
					class="st2"/>
			<rect x="0" y="120.355" width="28.3465" height="11.3386" class="st3"/>
		</g>
		<g id="shape46-21" v:mID="46" v:groupContext="shape" transform="translate(77.0354,-0.8)">
			<title>Sheet.46</title>
			<g id="shadow46-22" v:groupContext="shadow" v:shadowOffsetX="0" v:shadowOffsetY="0" transform="matrix(1,0,0,1,0,0)"
					class="st2"/>
			<rect x="0" y="120.355" width="28.3465" height="11.3386" class="st3"/>
		</g>
		<g id="shape51-24" v:mID="51" v:groupContext="shape" transform="translate(20.3425,-97.178)">
			<title>Sheet.51</title>
			<g id="shadow51-25" v:groupContext="shadow" v:shadowOffsetX="0" v:shadowOffsetY="0" transform="matrix(1,0,0,1,0,0)"
					class="st2"/>
			<rect x="0" y="120.355" width="28.3465" height="11.3386" class="st3"/>
		</g>
		<g id="shape52-27" v:mID="52" v:groupContext="shape" transform="translate(48.689,-46.1543)">
			<title>Sheet.52</title>
			<path d="M0 120.36 L0 131.69" class="st4"/>
		</g>
		<g id="shape53-30" v:mID="53" v:groupContext="shape" transform="translate(77.0354,-46.1543)">
			<title>Sheet.53</title>
			<path d="M0 120.36 L0 131.69" class="st4"/>
		</g>
		<g id="shape54-33" v:mID="54" v:groupContext="shape" transform="translate(20.3425,-46.1543)">
			<title>Sheet.54</title>
			<rect x="0" y="120.355" width="113.386" height="11.3386" class="st5"/>
			<rect x="0" y="120.355" width="113.386" height="11.3386" class="st6"/>
		</g>
		<g id="shape55-36" v:mID="55" v:groupContext="shape" transform="translate(105.382,-46.1543)">
			<title>Sheet.55</title>
			<path d="M0 120.36 L0 131.69" class="st4"/>
		</g>
		<g id="shape56-39" v:mID="56" v:groupContext="shape" transform="translate(197.391,34.5157) rotate(90)">
			<title>Signal 2.56</title>
			<path d="M0 131.69 L35.09 131.69" class="st7"/>
		</g>
		<g id="shape57-45" v:mID="57" v:groupContext="shape" transform="translate(102.547,-57.4929)">
			<title>Sheet.57</title>
			<desc>0</desc>
			<v:textBlock v:margins="rect(1,1,1,1)" v:tabSpace="42.5197"/>
			<v:textRect cx="14.1732" cy="126.024" width="28.35" height="11.3386"/>
			<rect x="0" y="120.355" width="28.3465" height="11.3386" class="st9"/>
			<text x="11.95" y="128.42" class="st10" v:langID="2057"><v:paragraph v:horizAlign="1"/><v:tabList/>0</text>		</g>
		<g id="shape58-48" v:mID="58" v:groupContext="shape" transform="translate(77.0354,-57.4929)">
			<title>Sheet.58</title>
			<desc>1</desc>
			<v:textBlock v:margins="rect(1,1,1,1)" v:tabSpace="42.5197"/>
			<v:textRect cx="14.1732" cy="126.024" width="28.35" height="11.3386"/>
			<rect x="0" y="120.355" width="28.3465" height="11.3386" class="st9"/>
			<text x="11.95" y="128.42" class="st10" v:langID="2057"><v:paragraph v:horizAlign="1"/><v:tabList/>1</text>		</g>
		<g id="shape59-51" v:mID="59" v:groupContext="shape" transform="translate(45.8543,-57.4929)">
			<title>Sheet.59</title>
			<desc>2</desc>
			<v:textBlock v:margins="rect(1,1,1,1)" v:tabSpace="42.5197"/>
			<v:textRect cx="14.1732" cy="126.024" width="28.35" height="11.3386"/>
			<rect x="0" y="120.355" width="28.3465" height="11.3386" class="st9"/>
			<text x="11.95" y="128.42" class="st10" v:langID="2057"><v:paragraph v:horizAlign="1"/><v:tabList/>2</text>		</g>
		<g id="shape60-54" v:mID="60" v:groupContext="shape" transform="translate(20.3425,-57.4929)">
			<title>Sheet.60</title>
			<desc>3</desc>
			<v:textBlock v:margins="rect(1,1,1,1)" v:tabSpace="42.5197"/>
			<v:textRect cx="14.1732" cy="126.024" width="28.35" height="11.3386"/>
			<rect x="0" y="120.355" width="28.3465" height="11.3386" class="st9"/>
			<text x="11.95" y="128.42" class="st10" v:langID="2057"><v:paragraph v:horizAlign="1"/><v:tabList/>3</text>		</g>
		<g id="group61-57" transform="translate(20.3425,-97.178)" v:mID="61" v:groupContext="group">
			<title>Sheet.61</title>
			<g id="shape62-58" v:mID="62" v:groupContext="shape" transform="translate(56.6929,0)">
				<title>Sheet.62</title>
				<g id="shadow62-59" v:groupContext="shadow" v:shadowOffsetX="0" v:shadowOffsetY="0" transform="matrix(1,0,0,1,0,0)"
						class="st2"/>
				<rect x="0" y="120.355" width="28.3465" height="11.3386" class="st3"/>
			</g>
			<g id="shape63-61" v:mID="63" v:groupContext="shape" transform="translate(28.3465,0)">
				<title>Sheet.63</title>
				<rect x="0" y="120.355" width="28.3465" height="11.3386" class="st1"/>
			</g>
			<g id="shape64-63" v:mID="64" v:groupContext="shape" transform="translate(28.3465,0)">
				<title>Sheet.64</title>
				<path d="M0 120.36 L0 131.69" class="st4"/>
			</g>
			<g id="shape65-66" v:mID="65" v:groupContext="shape" transform="translate(85.0394,0)">
				<title>Sheet.65</title>
				<rect x="0" y="120.355" width="28.3465" height="11.3386" class="st1"/>
			</g>
			<g id="shape66-68" v:mID="66" v:groupContext="shape" transform="translate(56.6929,0)">
				<title>Sheet.66</title>
				<path d="M0 120.36 L0 131.69" class="st4"/>
			</g>
			<g id="shape67-71" v:mID="67" v:groupContext="shape">
				<title>Sheet.67</title>
				<rect x="0" y="120.355" width="113.386" height="11.3386" class="st5"/>
				<rect x="0" y="120.355" width="113.386" height="11.3386" class="st6"/>
			</g>
			<g id="shape68-74" v:mID="68" v:groupContext="shape" transform="translate(85.0394,0)">
				<title>Sheet.68</title>
				<path d="M0 120.36 L0 131.69" class="st4"/>
			</g>
		</g>
		<g id="shape69-77" v:mID="69" v:groupContext="shape" transform="translate(254.083,34.5157) rotate(90)">
			<title>Signal 2.69</title>
			<path d="M0 131.69 L35.09 131.69" class="st7"/>
		</g>
		<g id="shape70-82" v:mID="70" v:groupContext="shape" transform="translate(0.5,-97.178)">
			<title>Sheet.70</title>
			<desc>Vn</desc>
			<v:textBlock v:margins="rect(1,2,1,0)" v:tabSpace="42.5197"/>
			<v:textRect cx="8.50394" cy="126.024" width="17.01" height="11.3386"/>
			<rect x="0" y="120.355" width="17.0079" height="11.3386" class="st9"/>
			<text x="5.22" y="128.42" class="st10" v:langID="2057"><v:paragraph v:horizAlign="2"/><v:tabList/>Vn</text>		</g>
		<g id="shape71-85" v:mID="71" v:groupContext="shape" transform="translate(0.5,-46.1543)">
			<title>Sheet.71</title>
			<desc>Vd</desc>
			<v:textBlock v:margins="rect(1,2,1,0)" v:tabSpace="42.5197"/>
			<v:textRect cx="8.50394" cy="126.024" width="17.01" height="11.3386"/>
			<rect x="0" y="120.355" width="17.0079" height="11.3386" class="st9"/>
			<text x="5.22" y="128.42" class="st10" v:langID="2057"><v:paragraph v:horizAlign="2"/><v:tabList/>Vd</text>		</g>
		<g id="shape72-88" v:mID="72" v:groupContext="shape" transform="translate(9.00394,-119.855)">
			<title>Sheet.72</title>
			<desc>TRN1.16</desc>
			<v:textBlock v:margins="rect(1,0,1,2)" v:tabSpace="42.5197"/>
			<v:textRect cx="18.4252" cy="126.024" width="36.86" height="11.3386"/>
			<rect x="0" y="120.355" width="36.8504" height="11.3386" class="st9"/>
			<text x="2" y="128.42" class="st10" v:langID="2057"><v:paragraph/><v:tabList/>TRN1.16</text>		</g>
		<g id="shape73-91" v:mID="73" v:groupContext="shape" transform="translate(192.379,1.23112) rotate(50.1944)">
			<title>Signal 2.73</title>
			<path d="M4.24 131.69 L4.6 131.69 L44.28 131.69" class="st11"/>
		</g>
		<g id="shape74-97" v:mID="74" v:groupContext="shape" transform="translate(48.689,-0.8)">
			<title>Sheet.74</title>
			<rect x="0" y="120.355" width="28.3465" height="11.3386" class="st1"/>
		</g>
		<g id="shape75-99" v:mID="75" v:groupContext="shape" transform="translate(48.689,-0.8)">
			<title>Sheet.75</title>
			<path d="M0 120.36 L0 131.69" class="st4"/>
		</g>
		<g id="shape76-102" v:mID="76" v:groupContext="shape" transform="translate(105.382,-0.8)">
			<title>Sheet.76</title>
			<rect x="0" y="120.355" width="28.3465" height="11.3386" class="st1"/>
		</g>
		<g id="shape77-104" v:mID="77" v:groupContext="shape" transform="translate(77.0354,-0.8)">
			<title>Sheet.77</title>
			<path d="M0 120.36 L0 131.69" class="st4"/>
		</g>
		<g id="shape78-107" v:mID="78" v:groupContext="shape" transform="translate(20.3425,-0.8)">
			<title>Sheet.78</title>
			<rect x="0" y="120.355" width="113.386" height="11.3386" class="st5"/>
			<rect x="0" y="120.355" width="113.386" height="11.3386" class="st6"/>
		</g>
		<g id="shape79-110" v:mID="79" v:groupContext="shape" transform="translate(105.382,-0.8)">
			<title>Sheet.79</title>
			<path d="M0 120.36 L0 131.69" class="st4"/>
		</g>
		<g id="shape80-113" v:mID="80" v:groupContext="shape" transform="translate(135.686,1.23112) rotate(50.1944)">
			<title>Signal 2.80</title>
			<path d="M4.24 131.69 L4.6 131.69 L44.28 131.69" class="st11"/>
		</g>
		<g id="shape81-118" v:mID="81" v:groupContext="shape" transform="translate(1.91732,-0.8)">
			<title>Sheet.81</title>
			<desc>Vm</desc>
			<v:textBlock v:margins="rect(1,2,1,0)" v:tabSpace="42.5197"/>
			<v:textRect cx="8.50394" cy="126.024" width="17.01" height="11.3386"/>
			<rect x="0" y="120.355" width="17.0079" height="11.3386" class="st9"/>
			<text x="3.01" y="128.42" class="st10" v:langID="2057"><v:paragraph v:horizAlign="2"/><v:tabList/>Vm</text>		</g>
		<g id="shape82-121" v:mID="82" v:groupContext="shape" transform="translate(224.437,-0.8)">
			<title>Sheet.82</title>
			<g id="shadow82-122" v:groupContext="shadow" v:shadowOffsetX="0" v:shadowOffsetY="0" transform="matrix(1,0,0,1,0,0)"
					class="st2"/>
			<rect x="0" y="120.355" width="28.3465" height="11.3386" class="st3"/>
		</g>
		<g id="shape83-124" v:mID="83" v:groupContext="shape" transform="translate(281.13,-0.8)">
			<title>Sheet.83</title>
			<g id="shadow83-125" v:groupContext="shadow" v:shadowOffsetX="0" v:shadowOffsetY="0" transform="matrix(1,0,0,1,0,0)"
					class="st2"/>
			<rect x="0" y="120.355" width="28.3465" height="11.3386" class="st3"/>
		</g>
		<g id="shape88-127" v:mID="88" v:groupContext="shape" transform="translate(224.437,-97.178)">
			<title>Sheet.88</title>
			<g id="shadow88-128" v:groupContext="shadow" v:shadowOffsetX="0" v:shadowOffsetY="0" transform="matrix(1,0,0,1,0,0)"
					class="st2"/>
			<rect x="0" y="120.355" width="28.3465" height="11.3386" class="st3"/>
		</g>
		<g id="shape89-130" v:mID="89" v:groupContext="shape" transform="translate(224.437,-46.1543)">
			<title>Sheet.89</title>
			<path d="M0 120.36 L0 131.69" class="st4"/>
		</g>
		<g id="shape90-133" v:mID="90" v:groupContext="shape" transform="translate(252.783,-46.1543)">
			<title>Sheet.90</title>
			<path d="M0 120.36 L0 131.69" class="st4"/>
		</g>
		<g id="shape91-136" v:mID="91" v:groupContext="shape" transform="translate(196.091,-46.1543)">
			<title>Sheet.91</title>
			<rect x="0" y="120.355" width="113.386" height="11.3386" class="st5"/>
			<rect x="0" y="120.355" width="113.386" height="11.3386" class="st6"/>
		</g>
		<g id="shape92-139" v:mID="92" v:groupContext="shape" transform="translate(281.13,-46.1543)">
			<title>Sheet.92</title>
			<path d="M0 120.36 L0 131.69" class="st4"/>
		</g>
		<g id="shape93-142" v:mID="93" v:groupContext="shape" transform="translate(321.042,-36.6986) rotate(57.2648)">
			<title>Signal 2.93</title>
			<path d="M0 131.69 L42.58 131.69" class="st7"/>
		</g>
		<g id="shape94-147" v:mID="94" v:groupContext="shape" transform="translate(281.13,-57.4929)">
			<title>Sheet.94</title>
			<desc>0</desc>
			<v:textBlock v:margins="rect(1,1,1,1)" v:tabSpace="42.5197"/>
			<v:textRect cx="14.1732" cy="126.024" width="28.35" height="11.3386"/>
			<rect x="0" y="120.355" width="28.3465" height="11.3386" class="st9"/>
			<text x="11.95" y="128.42" class="st10" v:langID="2057"><v:paragraph v:horizAlign="1"/><v:tabList/>0</text>		</g>
		<g id="shape95-150" v:mID="95" v:groupContext="shape" transform="translate(252.783,-57.4929)">
			<title>Sheet.95</title>
			<desc>1</desc>
			<v:textBlock v:margins="rect(1,1,1,1)" v:tabSpace="42.5197"/>
			<v:textRect cx="14.1732" cy="126.024" width="28.35" height="11.3386"/>
			<rect x="0" y="120.355" width="28.3465" height="11.3386" class="st9"/>
			<text x="11.95" y="128.42" class="st10" v:langID="2057"><v:paragraph v:horizAlign="1"/><v:tabList/>1</text>		</g>
		<g id="shape96-153" v:mID="96" v:groupContext="shape" transform="translate(224.437,-57.4929)">
			<title>Sheet.96</title>
			<desc>2</desc>
			<v:textBlock v:margins="rect(1,1,1,1)" v:tabSpace="42.5197"/>
			<v:textRect cx="14.1732" cy="126.024" width="28.35" height="11.3386"/>
			<rect x="0" y="120.355" width="28.3465" height="11.3386" class="st9"/>
			<text x="11.95" y="128.42" class="st10" v:langID="2057"><v:paragraph v:horizAlign="1"/><v:tabList/>2</text>		</g>
		<g id="shape97-156" v:mID="97" v:groupContext="shape" transform="translate(196.091,-57.4929)">
			<title>Sheet.97</title>
			<desc>3</desc>
			<v:textBlock v:margins="rect(1,1,1,1)" v:tabSpace="42.5197"/>
			<v:textRect cx="14.1732" cy="126.024" width="28.35" height="11.3386"/>
			<rect x="0" y="120.355" width="28.3465" height="11.3386" class="st9"/>
			<text x="11.95" y="128.42" class="st10" v:langID="2057"><v:paragraph v:horizAlign="1"/><v:tabList/>3</text>		</g>
		<g id="group98-159" transform="translate(196.091,-97.178)" v:mID="98" v:groupContext="group">
			<title>Sheet.98</title>
			<g id="shape99-160" v:mID="99" v:groupContext="shape">
				<title>Sheet.99</title>
				<rect x="0" y="120.355" width="28.3465" height="11.3386" class="st1"/>
			</g>
			<g id="shape100-162" v:mID="100" v:groupContext="shape" transform="translate(85.0394,0)">
				<title>Sheet.100</title>
				<g id="shadow100-163" v:groupContext="shadow" v:shadowOffsetX="0" v:shadowOffsetY="0"
						transform="matrix(1,0,0,1,5.68434E-014,0)" class="st2"/>
				<rect x="0" y="120.355" width="28.3465" height="11.3386" class="st3"/>
			</g>
			<g id="shape101-165" v:mID="101" v:groupContext="shape" transform="translate(28.3465,0)">
				<title>Sheet.101</title>
				<path d="M0 120.36 L0 131.69" class="st4"/>
			</g>
			<g id="shape102-168" v:mID="102" v:groupContext="shape" transform="translate(56.6929,-1.7053E-013)">
				<title>Sheet.102</title>
				<rect x="0" y="120.355" width="28.3465" height="11.3386" class="st1"/>
			</g>
			<g id="shape103-170" v:mID="103" v:groupContext="shape" transform="translate(56.6929,0)">
				<title>Sheet.103</title>
				<path d="M0 120.36 L0 131.69" class="st4"/>
			</g>
			<g id="shape104-173" v:mID="104" v:groupContext="shape">
				<title>Sheet.104</title>
				<rect x="0" y="120.355" width="113.386" height="11.3386" class="st5"/>
				<rect x="0" y="120.355" width="113.386" height="11.3386" class="st6"/>
			</g>
			<g id="shape105-176" v:mID="105" v:groupContext="shape" transform="translate(85.0394,0)">
				<title>Sheet.105</title>
				<path d="M0 120.36 L0 131.69" class="st4"/>
			</g>
		</g>
		<g id="shape106-179" v:mID="106" v:groupContext="shape" transform="translate(377.735,-36.6986) rotate(57.2648)">
			<title>Signal 2.106</title>
			<path d="M0 131.69 L42.58 131.69" class="st7"/>
		</g>
		<g id="shape107-184" v:mID="107" v:groupContext="shape" transform="translate(176.248,-97.178)">
			<title>Sheet.107</title>
			<desc>Vn</desc>
			<v:textBlock v:margins="rect(1,2,1,0)" v:tabSpace="42.5197"/>
			<v:textRect cx="8.50394" cy="126.024" width="17.01" height="11.3386"/>
			<rect x="0" y="120.355" width="17.0079" height="11.3386" class="st9"/>
			<text x="5.22" y="128.42" class="st10" v:langID="2057"><v:paragraph v:horizAlign="2"/><v:tabList/>Vn</text>		</g>
		<g id="shape108-187" v:mID="108" v:groupContext="shape" transform="translate(176.248,-46.1543)">
			<title>Sheet.108</title>
			<desc>Vd</desc>
			<v:textBlock v:margins="rect(1,2,1,0)" v:tabSpace="42.5197"/>
			<v:textRect cx="8.50394" cy="126.024" width="17.01" height="11.3386"/>
			<rect x="0" y="120.355" width="17.0079" height="11.3386" class="st9"/>
			<text x="5.22" y="128.42" class="st10" v:langID="2057"><v:paragraph v:horizAlign="2"/><v:tabList/>Vd</text>		</g>
		<g id="shape109-190" v:mID="109" v:groupContext="shape" transform="translate(184.752,-119.855)">
			<title>Sheet.109</title>
			<desc>TRN2.16</desc>
			<v:textBlock v:margins="rect(1,0,1,2)" v:tabSpace="42.5197"/>
			<v:textRect cx="18.4252" cy="126.024" width="36.86" height="11.3386"/>
			<rect x="0" y="120.355" width="36.8504" height="11.3386" class="st9"/>
			<text x="2" y="128.42" class="st10" v:langID="2057"><v:paragraph/><v:tabList/>TRN2.16</text>		</g>
		<g id="shape110-193" v:mID="110" v:groupContext="shape" transform="translate(399.423,85.5394) rotate(90)">
			<title>Signal 2.110</title>
			<path d="M4.24 131.69 L4.6 131.69 L34.02 131.69" class="st11"/>
		</g>
		<g id="shape111-198" v:mID="111" v:groupContext="shape" transform="translate(196.091,-0.8)">
			<title>Sheet.111</title>
			<rect x="0" y="120.355" width="28.3465" height="11.3386" class="st1"/>
		</g>
		<g id="shape112-200" v:mID="112" v:groupContext="shape" transform="translate(224.437,-0.8)">
			<title>Sheet.112</title>
			<path d="M0 120.36 L0 131.69" class="st4"/>
		</g>
		<g id="shape113-203" v:mID="113" v:groupContext="shape" transform="translate(252.783,-0.8)">
			<title>Sheet.113</title>
			<rect x="0" y="120.355" width="28.3465" height="11.3386" class="st1"/>
		</g>
		<g id="shape114-205" v:mID="114" v:groupContext="shape" transform="translate(252.783,-0.8)">
			<title>Sheet.114</title>
			<path d="M0 120.36 L0 131.69" class="st4"/>
		</g>
		<g id="shape115-208" v:mID="115" v:groupContext="shape" transform="translate(196.091,-0.8)">
			<title>Sheet.115</title>
			<rect x="0" y="120.355" width="113.386" height="11.3386" class="st5"/>
			<rect x="0" y="120.355" width="113.386" height="11.3386" class="st6"/>
		</g>
		<g id="shape116-211" v:mID="116" v:groupContext="shape" transform="translate(281.13,-0.8)">
			<title>Sheet.116</title>
			<path d="M0 120.36 L0 131.69" class="st4"/>
		</g>
		<g id="shape117-214" v:mID="117" v:groupContext="shape" transform="translate(341.957,85.5394) rotate(90)">
			<title>Signal 2.117</title>
			<path d="M4.24 131.69 L4.6 131.69 L34.02 131.69" class="st11"/>
		</g>
		<g id="shape118-219" v:mID="118" v:groupContext="shape" transform="translate(177.665,-0.8)">
			<title>Sheet.118</title>
			<desc>Vm</desc>
			<v:textBlock v:margins="rect(1,2,1,0)" v:tabSpace="42.5197"/>
			<v:textRect cx="8.50394" cy="126.024" width="17.01" height="11.3386"/>
			<rect x="0" y="120.355" width="17.0079" height="11.3386" class="st9"/>
			<text x="3.01" y="128.42" class="st10" v:langID="2057"><v:paragraph v:horizAlign="2"/><v:tabList/>Vm</text>		</g>
	</g>
</svg>
